<svg width="24.000000" height="24.000000" viewBox="0 0 24 24" fill="none" xmlns="http://www.w3.org/2000/svg" xmlns:xlink="http://www.w3.org/1999/xlink">
	<desc>
			Created with Pixso.
	</desc>
	<defs/>
	<path id="Vector" d="M23.2859 14.5332C25.0222 6.73193 18.187 -0.355469 10.1599 1.00537C5.80225 -1.69873 0 1.35693 0 6.54102C0 7.74658 0.332764 8.87549 0.911133 9.84814C-0.702393 17.6675 6.18896 24.6528 14.209 23.1992C19.8782 26.1968 26.1431 20.2188 23.2859 14.5332ZM15.6555 19.2378C13.5496 20.1035 10.084 20.1089 7.98706 19.0107C4.99707 17.4165 4.46558 13.8276 7.04492 13.8276C8.98901 13.8276 8.37378 16.0942 10.3367 17.0181C11.2378 17.4346 13.1748 17.4775 14.3008 16.7188C15.4126 15.9741 15.3108 14.8037 14.7063 14.2441C13.105 12.7661 8.52246 13.3535 6.42749 10.7651C5.51758 9.64258 5.3457 7.66162 6.4646 6.2251C8.41455 3.71631 14.137 3.56348 16.5974 5.45801C18.8691 7.21631 18.2559 9.5498 16.4226 9.5498C14.2178 9.5498 15.3767 6.66504 11.8171 6.66504C9.23682 6.66504 8.22192 8.5 10.0391 9.39258C12.5027 10.6162 18.7803 10.208 18.7803 14.9893C18.7754 16.979 17.5557 18.4624 15.6555 19.2378Z" fill="#0D6EB7" fill-opacity="1.000000" fill-rule="nonzero"/>
</svg>
