<svg width="24.000000" height="24.000000" viewBox="0 0 24 24" fill="none" xmlns="http://www.w3.org/2000/svg" xmlns:xlink="http://www.w3.org/1999/xlink">
	<desc>
			Created with Pixso.
	</desc>
	<defs/>
	<path id="Vector" d="M12 0C5.37354 0 0 5.37354 0 12C0 18.6265 5.37354 24 12 24C18.6265 24 24 18.6265 24 12C24 5.37354 18.6265 0 12 0ZM8.51294 18.1406L5.59033 18.1406L5.59033 9.34814L8.51294 9.34814L8.51294 18.1406ZM7.05176 8.14746L7.03271 8.14746C6.052 8.14746 5.41772 7.47217 5.41772 6.62842C5.41772 5.76562 6.07129 5.10938 7.07129 5.10938C8.0708 5.10938 8.68604 5.76562 8.70508 6.62842C8.70508 7.47217 8.0708 8.14746 7.05176 8.14746ZM19.051 18.1406L16.1289 18.1406L16.1289 13.437C16.1289 12.2549 15.7056 11.4482 14.6482 11.4482C13.8408 11.4482 13.3601 11.9922 13.1489 12.5171C13.0715 12.7051 13.0527 12.9678 13.0527 13.2305L13.0527 18.1406L10.1304 18.1406C10.1304 18.1406 10.1685 10.1729 10.1304 9.34814L13.0527 9.34814L13.0527 10.5928C13.4409 9.99414 14.136 9.1416 15.6865 9.1416C17.6094 9.1416 19.051 10.3984 19.051 13.0991L19.051 18.1406Z" fill="#0D6EB7" fill-opacity="1.000000" fill-rule="nonzero"/>
</svg>
