<svg width="24.000000" height="24.000000" viewBox="0 0 24 24" fill="none" xmlns="http://www.w3.org/2000/svg" xmlns:xlink="http://www.w3.org/1999/xlink">
	<desc>
			Created with Pixso.
	</desc>
	<defs/>
	<path id="Vector" d="M12.0029 0L11.9971 0C5.38062 0 0 5.38184 0 12C0 14.625 0.845947 17.0581 2.28442 19.0337L0.789062 23.4917L5.40161 22.0171C7.29907 23.2739 9.5625 24 12.0029 24C18.6194 24 24 18.6167 24 12C24 5.3833 18.6194 0 12.0029 0ZM18.9856 16.9453C18.696 17.7632 17.5471 18.4409 16.6306 18.6392C16.0034 18.7725 15.1846 18.8789 12.4275 17.7358C8.90088 16.2749 6.62988 12.6914 6.45288 12.459C6.28345 12.2266 5.02808 10.5615 5.02808 8.83936C5.02808 7.11768 5.90259 6.27881 6.25488 5.91895C6.54443 5.62354 7.02295 5.48828 7.48193 5.48828C7.63062 5.48828 7.76392 5.49609 7.88403 5.50195C8.23657 5.51709 8.41357 5.53809 8.646 6.09473C8.93555 6.79199 9.64038 8.51416 9.72461 8.69092C9.81006 8.86816 9.89551 9.10791 9.77539 9.34033C9.66309 9.58057 9.56396 9.68701 9.38696 9.89111C9.20996 10.0952 9.04199 10.251 8.86499 10.4702C8.70288 10.6606 8.52002 10.8643 8.72412 11.2168C8.92798 11.562 9.63306 12.7124 10.6709 13.6367C12.0105 14.8291 13.0964 15.21 13.4851 15.3721C13.7744 15.4922 14.1194 15.4634 14.3311 15.2383C14.5996 14.9492 14.9309 14.4692 15.2686 13.9966C15.5085 13.6577 15.8115 13.6157 16.1294 13.7354C16.4536 13.8481 18.168 14.6953 18.5205 14.8711C18.873 15.0479 19.1055 15.1318 19.1909 15.2803C19.2749 15.4292 19.2749 16.1265 18.9856 16.9453Z" fill="#0D6EB7" fill-opacity="1.000000" fill-rule="nonzero"/>
</svg>
