<svg width="24.000000" height="24.000000" viewBox="0 0 24 24" fill="none" xmlns="http://www.w3.org/2000/svg" xmlns:xlink="http://www.w3.org/1999/xlink">
	<desc>
			Created with Pixso.
	</desc>
	<defs/>
	<path id="Vector" d="M24 12.0303C24 5.38965 18.624 0 12 0C5.37598 0 0 5.38965 0 12.0303C0 17.8525 4.12793 22.7007 9.6001 23.8193L9.6001 15.6392L7.19995 15.6392L7.19995 12.0303L9.6001 12.0303L9.6001 9.02246C9.6001 6.70068 11.4839 4.81201 13.8 4.81201L16.8 4.81201L16.8 8.4209L14.3999 8.4209C13.74 8.4209 13.2 8.9624 13.2 9.62402L13.2 12.0303L16.8 12.0303L16.8 15.6392L13.2 15.6392L13.2 24C19.26 23.3984 24 18.2739 24 12.0303Z" fill="#0D6EB7" fill-opacity="1.000000" fill-rule="nonzero"/>
</svg>
