<svg width="320.000000" height="382.000000" viewBox="0 0 320 382" fill="none" xmlns="http://www.w3.org/2000/svg" xmlns:xlink="http://www.w3.org/1999/xlink">
	<desc>
			Created with Pixso.
	</desc>
	<defs>
		<clipPath id="clip52_3">
			<rect id="lamp (1) 1" width="75.140747" height="75.140747" transform="translate(66.000000 45.570312) rotate(-30.000000)" fill="white" fill-opacity="0"/>
		</clipPath>
		<filter id="filter_52_20_dd" x="120.675049" y="-3.437012" width="163.660004" height="249.906509" filterUnits="userSpaceOnUse" color-interpolation-filters="sRGB">
			<feFlood flood-opacity="0" result="BackgroundImageFix"/>
			<feColorMatrix in="SourceAlpha" type="matrix" values="0 0 0 0 0 0 0 0 0 0 0 0 0 0 0 0 0 0 127 0" result="hardAlpha"/>
			<feOffset dx="0" dy="4"/>
			<feGaussianBlur stdDeviation="4"/>
			<feComposite in2="hardAlpha" operator="out" k2="-1" k3="1"/>
			<feColorMatrix type="matrix" values="0 0 0 0 0.16078 0 0 0 0 0.094118 0 0 0 0 0.43529 0 0 0 0.2 0"/>
			<feBlend mode="normal" in2="BackgroundImageFix" result="effect_dropShadow_1"/>
			<feBlend mode="normal" in="SourceGraphic" in2="effect_dropShadow_1" result="shape"/>
		</filter>
	</defs>
	<g opacity="0.200000">
		<rect id="lamp (1) 1" width="75.140747" height="75.140747" transform="translate(66.000000 45.570312) rotate(-30.000000)" fill="#FFFFFF" fill-opacity="0"/>
		<g clip-path="url(#clip52_3)">
			<path id="Vector" d="M103.94 36.15C102.82 36.8 101.38 36.42 100.74 35.29L97.67 29.99C97.02 28.87 97.41 27.43 98.53 26.78C99.65 26.13 101.09 26.52 101.74 27.64L104.8 32.95C105.45 34.07 105.07 35.51 103.94 36.15Z" fill="#84B5FF" fill-opacity="1.000000" fill-rule="nonzero"/>
			<path id="Vector" d="M126.02 33.25C125.5 33.55 124.87 33.65 124.24 33.48C122.99 33.14 122.24 31.86 122.58 30.6L124.17 24.68C124.5 23.43 125.79 22.69 127.04 23.02C128.3 23.36 129.04 24.65 128.7 25.9L127.12 31.82C126.95 32.45 126.54 32.95 126.02 33.25Z" fill="#84B5FF" fill-opacity="1.000000" fill-rule="nonzero"/>
			<path id="Vector" d="M148.99 43.74L143.69 46.8C142.57 47.45 141.13 47.07 140.48 45.94C139.83 44.82 140.22 43.38 141.34 42.74L146.65 39.67C147.77 39.02 149.21 39.41 149.85 40.53C150.5 41.65 150.12 43.09 148.99 43.74Z" fill="#84B5FF" fill-opacity="1.000000" fill-rule="nonzero"/>
			<path id="Vector" d="M152.51 70.47C151.99 70.77 151.36 70.87 150.73 70.7L144.81 69.11C143.56 68.78 142.82 67.49 143.15 66.24C143.49 64.98 144.78 64.24 146.03 64.58L151.95 66.16C153.2 66.5 153.95 67.79 153.61 69.04C153.44 69.67 153.03 70.17 152.51 70.47Z" fill="#84B5FF" fill-opacity="1.000000" fill-rule="nonzero"/>
			<path id="Vector" d="M109.38 95.37C108.85 95.67 108.22 95.78 107.59 95.61C106.34 95.27 105.6 93.98 105.93 92.73L107.52 86.81C107.85 85.56 109.14 84.81 110.4 85.15C111.65 85.49 112.39 86.77 112.06 88.03L110.47 93.95C110.3 94.57 109.9 95.07 109.38 95.37Z" fill="#84B5FF" fill-opacity="1.000000" fill-rule="nonzero"/>
			<path id="Vector" d="M93.29 75.9L87.99 78.96C86.87 79.61 85.43 79.22 84.78 78.1C84.13 76.98 84.52 75.54 85.64 74.89L90.95 71.83C92.07 71.18 93.51 71.57 94.15 72.69C94.8 73.81 94.42 75.25 93.29 75.9Z" fill="#84B5FF" fill-opacity="1.000000" fill-rule="nonzero"/>
			<path id="Vector" d="M90.39 53.82C89.87 54.12 89.23 54.22 88.61 54.05L82.69 52.47C81.43 52.13 80.69 50.84 81.03 49.59C81.36 48.34 82.65 47.59 83.9 47.93L89.82 49.52C91.08 49.85 91.82 51.14 91.48 52.39C91.31 53.02 90.91 53.52 90.39 53.82Z" fill="#84B5FF" fill-opacity="1.000000" fill-rule="nonzero"/>
			<path id="Vector" d="M139.54 79.02L141.5 82.41C143 85.02 142.09 88.39 139.49 89.9L132.71 93.81C130.44 95.13 126.97 94.81 124.78 91.02L123.27 88.42L139.54 79.02Z" fill="#84B5FF" fill-opacity="1.000000" fill-rule="nonzero"/>
			<path id="Vector" d="M120.76 37.66C114.23 36.62 107.56 38.6 102.54 43.12C96.22 48.76 93.77 57.98 96.43 66.03C99.17 74.28 106.16 80 114.65 81.06C116.94 81.33 119.12 82.54 120.73 84.46L120.75 84.49C120.79 84.43 120.87 84.38 120.92 84.35L137.19 74.96C137.25 74.92 137.27 74.91 137.34 74.9L137.33 74.88C136.52 72.6 136.64 70 137.67 67.45C140.15 61.17 139.68 54.22 136.3 48.36C132.98 42.61 127.33 38.71 120.76 37.66ZM128.27 54.8C127.16 55.44 125.7 55.05 125.06 53.94C122.68 49.82 117.42 48.41 113.3 50.79C112.19 51.43 110.73 51.04 110.09 49.93C109.45 48.82 109.84 47.37 110.95 46.72C117.3 43.06 125.46 45.25 129.13 51.59C129.77 52.71 129.38 54.16 128.27 54.8Z" fill="#84B5FF" fill-opacity="1.000000" fill-rule="nonzero"/>
			<path id="Vector" d="M120.73 84.46L120.92 84.35C120.87 84.38 120.79 84.43 120.75 84.49L120.73 84.46Z" fill="#84B5FF" fill-opacity="1.000000" fill-rule="nonzero"/>
			<path id="Vector" d="M137.33 74.88L137.34 74.91C137.27 74.91 137.25 74.93 137.19 74.96L137.33 74.88Z" fill="#84B5FF" fill-opacity="1.000000" fill-rule="nonzero"/>
		</g>
	</g>
	<g opacity="0.200000">
		<path id="Vector" d="M119.66 165.76L128 167.32L128 174.8L119.66 176.23C119.02 179.3 117.81 182.18 116.13 184.73L120.91 191.74L115.62 197.03L108.71 192.15C106.17 193.82 103.3 195.02 100.22 195.66L98.65 204L91.18 204L89.74 195.66C86.67 195.02 83.8 193.81 81.25 192.13L74.25 196.91L68.96 191.62L73.84 184.71C72.17 182.17 70.97 179.29 70.33 176.22L62 174.65L62 167.18L70.33 165.74C70.97 162.66 72.19 159.8 73.86 157.25L69.08 150.25L74.37 144.96L81.29 149.84C83.84 148.17 86.71 146.96 89.78 146.33L91.35 138L98.82 138L100.26 146.33C103.34 146.97 106.2 148.19 108.75 149.86L115.75 145.08L121.05 150.37L116.16 157.28C117.82 159.81 119.02 162.67 119.66 165.76ZM95 155.51C86.45 155.51 79.53 162.45 79.53 170.98C79.53 179.51 86.45 186.45 95 186.45C103.54 186.45 110.46 179.53 110.46 170.98C110.46 162.44 103.54 155.51 95 155.51Z" fill="#84B5FF" fill-opacity="1.000000" fill-rule="nonzero"/>
	</g>
	<mask id="mask52_17" mask-type="alpha" maskUnits="userSpaceOnUse" x="0.000000" y="0.000000" width="320.000000" height="382.000000">
		<rect id="Rectangle 21" rx="16.000000" width="320.000000" height="382.000000" fill="#3D27C7" fill-opacity="1.000000"/>
	</mask>
	<g mask="url(#mask52_17)">
		<g opacity="0.100000">
			<path id="Vector" d="M189.97 189.8L178.15 185.17L177.75 185.01L165.94 180.38C165.94 180.38 165.28 221.44 83.44 357.05L102.06 365.04L109.55 368.34L128.4 376.84C160.45 221.72 189.97 189.8 189.97 189.8Z" fill="#84B5FF" fill-opacity="1.000000" fill-rule="nonzero"/>
		</g>
	</g>
	<g mask="url(#mask52_17)">
		<g opacity="0.500000">
			<path id="Vector" d="M183.1 180.74L178.38 179.82L178.75 178.87L175.18 176C175.18 176 104.1 377.29 75.22 401.06L73.43 407.95L85.16 414.45L87.73 414.52L99.55 419.46L102.63 419.6C97.58 382.54 183.1 180.74 183.1 180.74Z" fill="#FFFFFF" fill-opacity="1.000000" fill-rule="nonzero"/>
		</g>
	</g>
	<g mask="url(#mask52_17)">
		<g filter="url(#filter_52_20_dd)">
			<path id="Vector" d="M201.97 176.99C197.5 188.94 169.37 206.41 169.37 206.41C169.37 206.41 160.14 173.31 164.61 161.36C169.07 149.41 178.66 149.63 188.98 153.95C199.3 158.26 206.44 165.04 201.97 176.99Z" fill="#06B25F" fill-opacity="1.000000" fill-rule="nonzero"/>
			<g opacity="0.500000">
				<path id="Vector" d="M197.35 172.1C194.25 180.36 173.69 195.29 173.69 195.29C173.69 195.29 168.37 169.56 171.46 161.3C174.56 153.04 181.2 153.19 188.35 156.17C195.5 159.16 200.44 163.84 197.35 172.1Z" fill="#66D6A0" fill-opacity="1.000000" fill-rule="nonzero"/>
			</g>
			<path id="Vector" d="M193.75 165.73C191.94 170.53 178.48 183.08 178.48 183.08C178.48 183.08 176.84 164.26 178.64 159.46C180.45 154.66 184.33 154.75 188.5 156.48C192.67 158.21 195.56 160.94 193.75 165.73Z" fill="#66D6A0" fill-opacity="1.000000" fill-rule="nonzero"/>
			<path id="Vector" d="M188.83 119.02C188.83 119.02 157.98 120.18 148.41 146.59C148.41 146.59 149 150.18 152.91 147.8C156.82 145.42 162.6 136.81 179.45 143.83L188.83 119.02Z" fill="#A6CAFF" fill-opacity="1.000000" fill-rule="nonzero"/>
			<path id="Vector" d="M213.5 130.98C213.5 130.98 235.51 154.18 225.94 180.59C225.94 180.59 223.23 182.8 221.85 178.22C220.47 173.64 221.63 163.09 204.78 156.07L213.5 130.98Z" fill="#84B5FF" fill-opacity="1.000000" fill-rule="nonzero"/>
			<path id="Vector" d="M241.76 109.07C245.82 98.14 247.47 86.97 247.57 76.67L222.26 66.43L218.86 75.56C228.23 79.35 233.43 88.85 230.47 96.79C227.52 104.72 217.54 108.09 208.17 104.3L191 150.48L207.56 157.18C220.31 149.27 233.35 131.68 241.76 109.07Z" fill="#276ED8" fill-opacity="1.000000" fill-rule="nonzero"/>
			<path id="Vector" d="M198.3 84.07C201.25 76.13 211.23 72.77 220.6 76.55L223.99 67.43L198.68 57.19C192.09 64.87 186.09 74.28 182.02 85.2C173.61 107.82 171.87 129.97 176.16 144.78L192.73 151.48L209.91 105.29C200.54 101.51 195.34 92 198.3 84.07Z" fill="#3E85EE" fill-opacity="1.000000" fill-rule="nonzero"/>
			<path id="Vector" d="M175.66 147.73C175.28 147.57 174.87 147.72 174.76 148.06L173.76 150.96C173.64 151.31 173.85 151.71 174.23 151.87L188.73 158.01L190.15 153.87L175.66 147.73L175.66 147.73Z" fill="#3E85EE" fill-opacity="1.000000" fill-rule="nonzero"/>
			<path id="Vector" d="M204.05 159.7L189.57 153.57L188.14 157.72L202.62 163.85C203 164.01 203.41 163.86 203.53 163.52L204.52 160.62C204.64 160.28 204.43 159.87 204.05 159.7Z" fill="#276ED8" fill-opacity="1.000000" fill-rule="nonzero"/>
			<path id="Vector" d="M225.06 94.93C227.02 89.37 223.59 82.68 217.4 80L211.19 101.5C217.38 104.18 223.1 100.49 225.06 94.93Z" fill="#84B5FF" fill-opacity="1.000000" fill-rule="nonzero"/>
			<path id="Vector" d="M203.55 86.08C201.59 91.65 205.02 98.34 211.22 101.04L218.33 80.87C212.13 78.18 205.51 80.51 203.55 86.08Z" fill="#A6CAFF" fill-opacity="1.000000" fill-rule="nonzero"/>
			<path id="Vector" d="M225.05 94.07C223.02 99.64 216.62 100.05 211.22 100.52L209.53 105.15C216.27 106.59 227.78 106.58 230.76 96.24C233.71 88.12 228.75 79.47 219.7 75.71L216.71 79.44C222.91 82.02 227.07 88.5 225.05 94.07Z" fill="#06B25F" fill-opacity="1.000000" fill-rule="nonzero"/>
			<path id="Vector" d="M198.3 83.85C195.32 92.06 200.26 101.47 210.24 105.63L211.94 100.95C205.73 98.37 201.43 91.63 203.47 86C205.51 80.38 212.21 77.92 218.42 80.5L220.12 75.82C211.06 72.05 201.29 75.64 198.3 83.85Z" fill="#66D6A0" fill-opacity="1.000000" fill-rule="nonzero"/>
			<path id="Vector" d="M237.08 32L225 65.28L248.98 75.34C249.32 52.65 242.32 34.19 237.08 32Z" fill="#84B5FF" fill-opacity="1.000000" fill-rule="nonzero"/>
			<path id="Vector" d="M237.06 32.06C231.82 29.86 215.04 38.34 201 55.28L224.98 65.34L237.06 32.06Z" fill="#A6CAFF" fill-opacity="1.000000" fill-rule="nonzero"/>
		</g>
	</g>
	<g mask="url(#mask52_17)">
		<g opacity="0.070000">
			<path id="Vector" d="M138.75 348.53C132.38 338.84 123.64 330.37 112.88 324.18C78.85 304.62 37.41 315.09 20.32 347.56C20.25 347.7 20.17 347.84 20.1 347.98C24.24 356.89 27.2 366.2 28.95 375.6L207.64 478.33L279.3 387.27C271.85 379 248.1 354.89 237.95 349.05C204.97 330.09 167.05 331.14 138.75 348.53Z" fill="#276ED8" fill-opacity="1.000000" fill-rule="nonzero"/>
		</g>
		<path id="Vector" d="M90.57 401.06C88.37 385.05 83.74 370.81 76.49 359.36C55.59 326.34 18.45 325.02 -18.79 350.66C-19.36 334.6 -22.92 320.34 -29.74 309.55C-33.24 304.01 -37.4 299.74 -42.05 296.67C-42.64 314.51 -47.71 334.86 -57.32 354.86L40.14 411.02L91.36 440.52C92.48 426.63 92.24 413.32 90.57 401.06Z" fill="#FFFFFF" fill-opacity="0.300000" fill-rule="nonzero"/>
		<g opacity="0.070000">
			<path id="Vector" d="M67.49 377.15C67.28 363.65 62.34 352.38 52.98 347.04L52.86 346.98C53.32 346.17 53.78 345.36 54.22 344.53C70.93 313.18 68.22 278.49 48.17 267.06C41.82 263.44 34.5 262.6 26.93 264.11C31.56 234.22 23.69 207.64 4.26 196.56C-1.49 193.28 -7.8 191.61 -14.41 191.41L-86.53 326.75L21.44 388.3L59.7 410.11C65.09 398.93 67.65 387.4 67.49 377.15Z" fill="#276ED8" fill-opacity="1.000000" fill-rule="nonzero"/>
		</g>
		<g opacity="0.600000">
			<path id="Vector" d="M136.01 363.06C125.7 349.34 111.26 340.43 95.82 339.97L95.62 339.96C95.59 338.89 95.54 337.81 95.46 336.73C92.6 295.68 63.46 261.6 30.39 260.59C19.92 260.28 10.31 263.32 2.16 268.92C-14.41 235.81 -43.84 212.79 -75.9 211.82C-85.39 211.53 -94.36 213.19 -102.62 216.51L-90.26 393.69L87.87 399.08L151 401C149.28 386.65 143.83 373.47 136.01 363.06Z" fill="#FFFFFF" fill-opacity="1.000000" fill-rule="nonzero"/>
		</g>
		<g opacity="0.070000">
			<path id="Vector" d="M65.64 389.12C61.5 372.8 50.64 361.21 34.55 358.73L34.35 358.69C34.83 357.52 35.31 356.34 35.77 355.14C52.97 309.87 38.99 268.84 4.53 263.52C-6.38 261.84 -18.03 263.94 -29.41 269.03C-29.96 251.26 -34.5 235.51 -42.54 223.21L-96.09 323.59L66.56 417.01C68.1 406.88 67.74 397.39 65.64 389.12Z" fill="#276ED8" fill-opacity="1.000000" fill-rule="nonzero"/>
		</g>
		<g opacity="0.600000">
			<path id="Vector" d="M289.61 347.06C281.99 340.02 272.52 334.38 261.68 330.96C227.42 320.16 192.52 335.51 183.74 365.24C183.5 366.02 183.3 366.81 183.11 367.6L182.91 367.53C166.92 362.49 150.76 364.12 138.17 370.79C128.62 375.85 121.13 383.82 117.32 393.96L182.71 414.57L317.43 457.04L383.8 333.48C381.98 332.79 380.13 332.16 378.24 331.56C345.04 321.09 311.4 328.06 289.61 347.06Z" fill="#FFFFFF" fill-opacity="1.000000" fill-rule="nonzero"/>
		</g>
	</g>
</svg>
