<svg width="322.000000" height="383.000000" viewBox="0 0 322 383" fill="none" xmlns="http://www.w3.org/2000/svg" xmlns:xlink="http://www.w3.org/1999/xlink">
	<desc>
			Created with Pixso.
	</desc>
	<defs>
		<filter id="filter_52_65_dd" x="145.100159" y="42.666077" width="150.106598" height="146.806030" filterUnits="userSpaceOnUse" color-interpolation-filters="sRGB">
			<feFlood flood-opacity="0" result="BackgroundImageFix"/>
			<feColorMatrix in="SourceAlpha" type="matrix" values="0 0 0 0 0 0 0 0 0 0 0 0 0 0 0 0 0 0 127 0" result="hardAlpha"/>
			<feOffset dx="0" dy="4"/>
			<feGaussianBlur stdDeviation="4"/>
			<feComposite in2="hardAlpha" operator="out" k2="-1" k3="1"/>
			<feColorMatrix type="matrix" values="0 0 0 0 0.16078 0 0 0 0 0.094118 0 0 0 0 0.43529 0 0 0 0.25 0"/>
			<feBlend mode="normal" in2="BackgroundImageFix" result="effect_dropShadow_1"/>
			<feBlend mode="normal" in="SourceGraphic" in2="effect_dropShadow_1" result="shape"/>
		</filter>
		<filter id="filter_52_93_dd" x="30.625183" y="28.738525" width="154.807190" height="149.851562" filterUnits="userSpaceOnUse" color-interpolation-filters="sRGB">
			<feFlood flood-opacity="0" result="BackgroundImageFix"/>
			<feColorMatrix in="SourceAlpha" type="matrix" values="0 0 0 0 0 0 0 0 0 0 0 0 0 0 0 0 0 0 127 0" result="hardAlpha"/>
			<feOffset dx="0" dy="4"/>
			<feGaussianBlur stdDeviation="4"/>
			<feComposite in2="hardAlpha" operator="out" k2="-1" k3="1"/>
			<feColorMatrix type="matrix" values="0 0 0 0 0.16078 0 0 0 0 0.094118 0 0 0 0 0.43529 0 0 0 0.25 0"/>
			<feBlend mode="normal" in2="BackgroundImageFix" result="effect_dropShadow_1"/>
			<feBlend mode="normal" in="SourceGraphic" in2="effect_dropShadow_1" result="shape"/>
		</filter>
	</defs>
	<mask id="mask52_52" mask-type="alpha" maskUnits="userSpaceOnUse" x="0.000000" y="0.000000" width="322.000000" height="383.000000">
		<rect id="Rectangle 21" rx="16.000000" width="322.000000" height="383.000000" fill="#3D27C7" fill-opacity="1.000000"/>
	</mask>
	<g mask="url(#mask52_52)">
		<path id="Vector" d="M253.06 131.91C255.53 134.74 260.07 134.99 263.22 132.45L272.26 125.16C275.41 122.63 275.97 118.27 273.5 115.43C271.03 112.59 266.49 112.35 263.34 114.88L253.81 125.16C250.67 127.7 250.6 129.07 253.06 131.91Z" fill="#DEC29B" fill-opacity="1.000000" fill-rule="nonzero"/>
		<path id="Vector" d="M261.17 147.42C264.08 149.61 268.47 149.01 270.96 146.09L278.12 137.69C280.61 134.76 280.27 130.62 277.35 128.42C274.44 126.23 270.05 126.83 267.57 129.76L260.54 141.02C258.04 143.95 258.25 145.23 261.17 147.42Z" fill="#DEC29B" fill-opacity="1.000000" fill-rule="nonzero"/>
		<path id="Vector" d="M267.08 157.83C269.77 159.52 273.54 158.72 275.5 156.05L281.13 148.34C283.09 145.66 282.5 142.11 279.8 140.42C277.11 138.73 273.35 139.53 271.38 142.21L266.08 152.37C264.11 155.04 264.39 156.14 267.08 157.83Z" fill="#DEC29B" fill-opacity="1.000000" fill-rule="nonzero"/>
		<path id="Vector" d="M302.67 124.72C302.67 124.72 277.13 129.44 274.77 129.97C272.4 130.51 258.95 117.13 265.02 112.09C275.44 103.39 302.67 124.72 302.67 124.72Z" fill="#D3AF85" fill-opacity="1.000000" fill-rule="nonzero"/>
		<path id="Vector" d="M303.45 125.61C303.45 125.61 277.66 130.41 275.28 130.95C272.89 131.5 302.89 161.81 305.55 148.98C308.21 136.16 303.45 125.61 303.45 125.61Z" fill="#DEC29B" fill-opacity="1.000000" fill-rule="nonzero"/>
		<path id="Vector" d="M247.47 120.06C249.83 122.97 254.35 123.35 257.57 120.9L266.83 113.88C270.05 111.43 270.75 107.09 268.39 104.18C266.03 101.27 261.5 100.89 258.28 103.33L248.45 113.33C245.22 115.77 245.11 117.15 247.47 120.06Z" fill="#EAD7B7" fill-opacity="1.000000" fill-rule="nonzero"/>
		<path id="Vector" d="M255.37 109.46C255.55 113.17 258.9 115.84 262.85 115.42L284.85 112.74C288.79 112.32 291.84 108.97 291.65 105.26C291.47 101.55 288.12 98.88 284.17 99.3C284.17 99.3 273 101.14 262.17 101.98C258.22 102.28 255.18 105.75 255.37 109.46Z" fill="#EAD7B7" fill-opacity="1.000000" fill-rule="nonzero"/>
		<path id="Vector" d="M276.96 104.01C274.01 108.04 274.01 111.45 277.43 114.73C281.26 118.4 284.88 121.86 289.8 122.47C292.5 131.64 301.87 133.82 301.87 133.82C305.92 136.38 312.98 132.47 315.94 128.44C318.89 124.41 318.01 119.06 313.96 116.5C313.96 116.5 302.25 110.32 289.64 101.35C285.76 98.58 279.92 99.98 276.96 104.01Z" fill="#EAD7B7" fill-opacity="1.000000" fill-rule="nonzero"/>
		<path id="Vector" d="M258.42 105.02L258.5 104.98C260.94 103.73 263.69 103.44 266.23 104.15C268.77 104.86 270.81 106.49 271.95 108.73L274.69 113.97L265.28 115.14L257.46 121.08C256.92 121.49 256.34 121.82 255.74 122.08L253.66 118.08C251.31 113.47 253.44 107.61 258.42 105.02Z" fill="#DEC29B" fill-opacity="1.000000" fill-rule="nonzero"/>
		<path id="Vector" d="M310.27 117.9C304.04 118.58 300.36 128.79 296.11 131.35C282.43 139.59 289.56 166.36 289.56 166.36C287.79 175.82 293.31 187.66 303.43 192.23C315.39 197.64 326.15 190.06 325.43 176.59L322.43 126.08C322.16 120.64 319.06 118.93 315.04 117.1L310.27 117.9Z" fill="#EAD7B7" fill-opacity="1.000000" fill-rule="nonzero"/>
		<g filter="url(#filter_52_65_dd)">
			<path id="Vector" d="M169.84 173.45C169.38 173.53 168.96 173.29 168.82 172.88C168.82 172.83 168.82 172.77 168.81 172.71L164.49 140.03C164.43 138.69 165.03 138.58 165.56 138.48C166.25 138.35 167.58 138.35 169.93 139.02L173.01 139.88L172.96 139.52C174.05 139.59 175.17 139.52 176.27 139.32C183.79 137.96 189.13 131.06 188.19 123.93C187.25 116.83 180.4 112.13 172.91 113.47C171.78 113.67 170.69 114.01 169.66 114.45L169.61 114.07L166.89 116C165.38 117.09 164.05 117.75 163.07 117.93C162.34 118.06 162.05 117.89 161.88 117.71C161.67 117.51 161.51 117.16 161.41 116.72L157.13 84.29C157.12 84.23 157.11 84.17 157.1 84.12C157.13 83.67 157.47 83.3 157.92 83.21L192.25 77C194.02 76.53 195.25 75.55 195.78 74.25C196.43 72.67 196.04 70.72 194.64 68.45L194.71 68.44L193.78 67.18C192.83 65.89 192.23 64.42 192.02 62.81C191.28 57.27 195.44 51.89 201.28 50.84C207.14 49.79 212.48 53.45 213.21 58.99C213.42 60.59 213.23 62.2 212.65 63.78L212.09 65.3L212.16 65.29C211.33 68.1 211.43 70.09 212.46 71.36C213.04 72.07 214.2 72.88 216.48 72.64L250.98 66.4C251.5 66.31 251.98 66.64 252.05 67.13L256.36 99.76C256.95 102.33 258.81 103.54 261.36 103.08C262.47 102.89 263.74 102.36 265.14 101.51L265.15 101.57L266.52 100.6C267.93 99.6 269.5 98.93 271.19 98.63C277.05 97.58 282.39 101.24 283.12 106.78C283.48 109.47 282.7 112.21 280.96 114.46C279.2 116.73 276.68 118.26 273.85 118.77C272.16 119.07 270.5 118.99 268.9 118.53L267.34 118.09L267.35 118.15C265.68 117.79 264.29 117.72 263.13 117.93C260.65 118.38 259.29 120.14 259.41 122.77L263.74 155.55C263.81 156.05 263.43 156.53 262.91 156.62L228.44 162.86C227.04 163 226.97 162.42 226.89 161.93C226.81 161.27 226.88 160 227.73 157.68L228.82 154.67L228.44 154.74C228.58 153.67 228.57 152.61 228.44 151.55C227.49 144.44 220.64 139.74 213.16 141.08C205.63 142.44 200.3 149.34 201.24 156.47C201.38 157.53 201.66 158.55 202.05 159.51L201.66 159.58L203.5 162.07C204.53 163.47 205.15 164.7 205.27 165.63C205.36 166.32 205.16 166.61 204.97 166.79C204.74 166.99 204.37 167.18 203.9 167.3L169.84 173.45Z" fill="#06B25F" fill-opacity="1.000000" fill-rule="nonzero"/>
		</g>
		<path id="Vector 3" d="M209.13 93.53L202.35 109.57L211.98 121.1L214.75 115.09L209.06 108.29L213.08 98.27L209.13 93.53ZM213.97 99.47L211.56 105.41L212.81 106.55L219.17 105.33L213.97 99.47ZM210.12 108.09L214.07 112.82L223.96 110.93L230.91 118.86L237.27 117.65L226.38 104.98L210.12 108.09ZM223.05 112.13L217.04 113.28L212.88 122.3L202.28 124.33L199.81 129.94L217.18 126.97L223.05 112.13ZM210.02 120.11L206.13 115.71L202.44 122.93L209.16 121.64L210.02 120.11ZM223.08 114.87L225.55 114.4L229.49 119.13L220.66 120.82L223.08 114.87Z" fill="#FFFFFF" fill-opacity="1.000000" fill-rule="evenodd"/>
		<path id="Vector" d="M271.63 158.26L263.34 134.21L254.92 118.17C252.8 114.06 254.72 108.89 259.21 106.61C263.7 104.34 269.06 105.82 271.17 109.93L278.24 123.4L294.78 146.51C297.62 150.98 294.56 157.67 287.73 161.13C280.91 164.59 273.64 163.17 271.63 158.26Z" fill="#EAD7B7" fill-opacity="1.000000" fill-rule="nonzero"/>
		<path id="Vector" d="M273.63 172.43C277.78 195.03 302.84 200.03 316.02 193.18C329.21 186.32 325.06 171.02 324.36 151.1C323.97 140.07 306.54 159.66 288.71 138.97C279.29 139.73 273.04 143.37 267.62 146.19C267.63 146.19 270.19 153.75 273.63 172.43Z" fill="#EAD7B7" fill-opacity="1.000000" fill-rule="nonzero"/>
		<path id="Vector" d="M325.89 183.96C323.47 199.72 326.79 204.25 328.97 208.41L299.26 223.87C299.26 223.87 300.47 207.98 284.52 190.32C309.49 181.02 325.89 183.96 325.89 183.96Z" fill="#EAD7B7" fill-opacity="1.000000" fill-rule="nonzero"/>
		<path id="Vector" d="M367.83 326.71L327.2 196.91L295.3 214.32L325.76 364.74L367.83 326.71Z" fill="#276ED8" fill-opacity="1.000000" fill-rule="nonzero"/>
		<path id="Vector" d="M59.14 138.46L55.66 128.51C54.64 126.44 52.7 124.95 50.8 124.57C46.07 122.86 39.56 120.43 35.28 118.83C34.24 117.93 32.73 117.51 31.33 117.35C30.99 117.23 30.81 117.15 30.81 117.15C29.54 116.8 28.31 117.02 27.32 117.65C18.09 121.57 7.71 127.11 7.71 127.11C5.21 128.68 6.43 134.11 8.52 136.7C10.61 139.29 17.63 148.34 20.12 146.76C20.12 146.76 22.87 137.86 26.65 134.71C28.58 134.51 32.13 131.98 35.11 129.53C38.65 130.83 43.35 132.3 48.08 132.94L50.99 138.81C52.37 141.6 55.42 143.35 57.81 142.71C60.19 142.08 60.52 141.25 59.14 138.46Z" fill="#DEC29B" fill-opacity="1.000000" fill-rule="nonzero"/>
		<path id="Vector" d="M59.96 141C59.99 140.4 59.71 139.59 59.15 138.47L55.67 128.51C54.65 126.44 52.71 124.95 50.81 124.58C46.08 122.86 39.57 120.43 35.29 118.84C34.25 117.93 32.74 117.51 31.34 117.36C31 117.23 30.82 117.15 30.82 117.15C29.55 116.8 28.32 117.02 27.33 117.66C18.1 121.58 7.71 127.11 7.71 127.11C5.22 128.68 6.44 134.11 8.53 136.7C10.62 139.3 17.64 148.34 20.13 146.77C20.13 146.77 21.18 143.39 22.86 140.06C23.79 137.83 24.95 135.66 26.32 134.3C28.41 133.92 32.05 130.82 35.08 127.85C39.05 129.04 44.31 130.3 49.53 130.65L53.23 136.98C54.74 139.58 57.57 141.21 59.96 141Z" fill="#D3AF85" fill-opacity="1.000000" fill-rule="nonzero"/>
		<path id="Vector" d="M67.5 134.37L63.03 121.58C61.72 118.92 59.22 117.01 56.78 116.52C50.7 114.31 42.35 111.2 36.84 109.14C35.51 107.98 33.58 107.44 31.77 107.24C31.34 107.08 31.1 106.98 31.1 106.98C29.47 106.54 27.88 106.81 26.61 107.63C14.76 112.66 1.41 119.77 1.41 119.77C-1.79 121.79 -0.23 128.76 2.45 132.09C5.14 135.42 14.16 147.05 17.36 145.03C17.36 145.03 20.9 133.6 25.75 129.54C28.23 129.28 32.78 126.03 36.62 122.88C41.15 124.56 47.2 126.44 53.28 127.27L57.01 134.81C58.78 138.39 62.71 140.64 65.77 139.83C68.84 139.01 69.27 137.95 67.5 134.37Z" fill="#DEC29B" fill-opacity="1.000000" fill-rule="nonzero"/>
		<path id="Vector" d="M68.55 137.63C68.58 136.86 68.23 135.82 67.5 134.37L63.04 121.58C61.72 118.92 59.23 117.01 56.78 116.52C50.7 114.31 42.35 111.2 36.84 109.14C35.51 107.98 33.58 107.44 31.77 107.24C31.34 107.08 31.1 106.98 31.1 106.98C29.47 106.54 27.88 106.81 26.61 107.63C14.76 112.66 1.41 119.77 1.41 119.77C-1.79 121.79 -0.23 128.76 2.45 132.09C5.15 135.42 14.16 147.05 17.36 145.03C17.36 145.03 18.71 140.69 20.87 136.41C22.06 133.54 23.55 130.75 25.31 129C27.99 128.52 32.67 124.54 36.56 120.72C41.66 122.24 48.43 123.87 55.12 124.32L59.87 132.44C61.84 135.79 65.48 137.89 68.55 137.63Z" fill="#D3AF85" fill-opacity="1.000000" fill-rule="nonzero"/>
		<path id="Vector" d="M73.22 127.92L67.19 113.97C65.51 111.11 62.62 109.16 59.9 108.8C53.06 106.8 43.65 103.96 37.45 102.08C35.89 100.88 33.73 100.43 31.74 100.34C31.25 100.2 30.97 100.11 30.97 100.11C29.15 99.73 27.44 100.17 26.13 101.17C13.63 107.7 -0.31 116.66 -0.31 116.66C-3.63 119.16 -1.3 126.83 1.94 130.33C5.18 133.84 16.07 146.14 19.4 143.64C19.4 143.64 22.23 130.6 27.17 125.7C29.85 125.22 34.54 121.24 38.44 117.43C43.55 118.96 50.34 120.6 57.05 121.06L61.81 129.19C64.07 133.06 68.56 135.27 71.84 134.13C75.11 133 75.48 131.78 73.22 127.92Z" fill="#DEC29B" fill-opacity="1.000000" fill-rule="nonzero"/>
		<path id="Vector" d="M27.34 138.2C27.34 138.2 23.04 149.32 35.57 158.86C23.19 152.78 16.85 136.84 19.25 128.57C21.66 120.31 27.34 138.2 27.34 138.2Z" fill="#D3AF85" fill-opacity="1.000000" fill-rule="nonzero"/>
		<path id="Vector" d="M79.37 91.76C78.75 95.23 74.46 97.09 69.79 95.92L56.4 92.56C51.73 91.39 48.45 87.63 49.08 84.17C49.7 80.7 53.99 78.84 58.65 80.01L74.41 85.91C79.07 87.08 80 88.3 79.37 91.76Z" fill="#EAD7B7" fill-opacity="1.000000" fill-rule="nonzero"/>
		<path id="Vector" d="M61.39 85.31C63.54 89.48 62.04 93.26 58.78 94.98C46.86 101.27 31.57 102.77 31.57 102.77C27.98 103.94 23.32 101.52 21.17 97.35C19.02 93.19 20.19 88.86 23.78 87.68C23.78 87.68 43.3 83.57 54.45 81.06C58.2 80.2 59.24 81.14 61.39 85.31Z" fill="#EAD7B7" fill-opacity="1.000000" fill-rule="nonzero"/>
		<path id="Vector" d="M27.41 87.85C30.99 90.27 36.02 90.22 34.6 94.5C33 99.28 27.41 113.51 23.95 116C21.05 122.99 21.95 137.66 21.95 137.66C19.8 141.55 7.61 132.9 4.02 130.48C0.44 128.06 -3.43 120.96 -1.29 117.09C-1.29 117.09 8.31 102.12 17.2 90.48C17.97 89.47 23.82 85.44 27.41 87.85Z" fill="#EAD7B7" fill-opacity="1.000000" fill-rule="nonzero"/>
		<path id="Vector" d="M11.93 118.98C17.99 121.42 23.53 122.18 23.23 126.61C22.26 141.45 30.2 153.84 36.73 155.76C46.82 158.74 11.6 187.39 0.35 188.6C-12.96 190.03 -21.83 180.01 -17.77 167.95L-5.46 119.74C-3.84 114.87 2.88 117.34 7.36 116.85L11.93 118.98Z" fill="#EAD7B7" fill-opacity="1.000000" fill-rule="nonzero"/>
		<path id="Vector" d="M17.79 196.04C28.14 194.7 36.91 190.82 44.46 187.54C47.35 186.28 57.82 180.74 65.71 177.8L78.38 166.18C80.11 164.21 87.12 161.85 85.43 157.34C83.74 152.83 76.29 150.64 71.8 151.59C64.38 153.15 59.39 160.5 55.46 161.5C32.25 156.71 27.3 156.15 27.3 156.15C21.99 156.75 -18.97 170.58 -16.4 177.44C-13.84 184.28 12.5 196.72 17.79 196.04Z" fill="#EAD7B7" fill-opacity="1.000000" fill-rule="nonzero"/>
		<path id="Vector" d="M34.47 179.83C24.85 199.11 -1.28 196.3 -12.72 186.22C-24.16 176.13 -16.32 163.49 -10.78 145.63C-7.72 135.74 1.1 158.71 23.85 145.16C29.5 155.05 31.58 157.22 45.03 160.49C47.2 159.6 42.41 163.89 34.47 179.83Z" fill="#EAD7B7" fill-opacity="1.000000" fill-rule="nonzero"/>
		<path id="Vector" d="M-16.54 160.36C-19.77 181.48 -24.68 186.53 -28.31 191.38L2.23 226.84C2.23 226.84 7.93 211.05 26.57 184.37C5.2 165.9 -16.54 160.36 -16.54 160.36Z" fill="#EAD7B7" fill-opacity="1.000000" fill-rule="nonzero"/>
		<path id="Vector" d="M-5.33 237.99L13.3 210.17L-23.69 188.8L-52.55 220.65L-5.33 237.99Z" fill="#84B5FF" fill-opacity="1.000000" fill-rule="nonzero"/>
		<g filter="url(#filter_52_93_dd)">
			<path id="Vector" d="M43.33 129.79C42.88 129.63 42.59 129.2 42.62 128.77C42.65 128.72 42.67 128.66 42.68 128.61L52.06 97.5C52.56 96.29 53.14 96.49 53.66 96.68C54.34 96.93 55.54 97.6 57.41 99.41L59.84 101.74L59.95 101.4C60.92 102.02 61.95 102.52 63.04 102.92C66.61 104.2 70.33 104.11 73.55 102.69C76.77 101.27 79.09 98.68 80.08 95.4C82.12 88.62 77.81 80.96 70.47 78.32C69.37 77.92 68.27 77.66 67.15 77.52L67.26 77.17L64.02 77.49C62.2 77.66 60.72 77.57 59.76 77.23C59.05 76.97 58.86 76.67 58.77 76.43C58.66 76.14 58.66 75.75 58.75 75.31L68.07 44.44C68.08 44.39 68.1 44.33 68.11 44.27C68.31 43.9 68.77 43.74 69.22 43.9L102.84 55.97C104.64 56.45 106.15 56.22 107.16 55.34C108.38 54.27 108.82 52.36 108.48 49.63L108.55 49.65L108.22 48.06C107.88 46.42 107.94 44.83 108.4 43.3C109.17 40.74 110.97 38.72 113.49 37.61C116 36.5 118.9 36.44 121.67 37.44C127.4 39.5 130.75 45.47 129.16 50.76C128.7 52.27 127.87 53.6 126.7 54.7L125.57 55.76L125.63 55.79C123.75 57.85 123.03 59.66 123.44 61.3C123.68 62.22 124.41 63.54 126.56 64.48L160.35 76.62C160.86 76.81 161.16 77.35 161.02 77.82L151.66 108.88C151.15 111.46 152.35 113.49 154.84 114.38C155.94 114.78 157.3 114.96 158.9 114.92L158.88 114.99L160.52 114.83C162.21 114.66 163.91 114.88 165.55 115.47C171.27 117.53 174.63 123.5 173.03 128.79C172.26 131.35 170.46 133.37 167.94 134.48C165.44 135.58 162.52 135.64 159.75 134.65C158.1 134.05 156.63 133.13 155.36 131.9L154.13 130.71L154.11 130.77C152.74 129.59 151.51 128.82 150.37 128.41C147.94 127.53 146 128.4 145.05 130.79L135.63 162C135.49 162.47 134.95 162.71 134.44 162.52L100.69 150.4C99.36 149.8 99.52 149.27 99.67 148.78C99.86 148.16 100.44 147.08 102.16 145.46L104.38 143.35L104.01 143.22C104.56 142.35 104.99 141.4 105.3 140.39C107.34 133.62 103.03 125.95 95.69 123.31C92.13 122.03 88.4 122.12 85.18 123.54C81.96 124.96 79.65 127.55 78.66 130.83C78.35 131.84 78.18 132.88 78.15 133.94L77.77 133.8L78.43 136.94C78.79 138.71 78.85 140.1 78.57 141C78.38 141.65 78.08 141.81 77.84 141.87C77.54 141.95 77.13 141.91 76.66 141.78L43.33 129.79Z" fill="#276ED8" fill-opacity="1.000000" fill-rule="nonzero"/>
		</g>
	</g>
</svg>
