<svg width="204.000000" height="202.000000" viewBox="0 0 204 202" fill="none" xmlns="http://www.w3.org/2000/svg" xmlns:xlink="http://www.w3.org/1999/xlink">
	<desc>
			Created with Pixso.
	</desc>
	<defs>
		<clipPath id="clip52_100">
			<rect id="magnifier 1" width="57.000000" height="57.000000" transform="matrix(-1 0 0 1 180 0)" fill="white" fill-opacity="0"/>
		</clipPath>
		<clipPath id="clip52_106">
			<rect id="credit-card (1) 1" width="67.000000" height="67.000000" transform="translate(0.000000 94.000000)" fill="white" fill-opacity="0"/>
		</clipPath>
		<clipPath id="clip52_113">
			<rect id="shopping-cart 1" width="66.000000" height="66.000000" transform="matrix(-1 0 0 1 204 136)" fill="white" fill-opacity="0"/>
		</clipPath>
		<filter id="filter_52_117_dd" x="46.000000" y="18.000000" width="112.000000" height="183.951782" filterUnits="userSpaceOnUse" color-interpolation-filters="sRGB">
			<feFlood flood-opacity="0" result="BackgroundImageFix"/>
			<feColorMatrix in="SourceAlpha" type="matrix" values="0 0 0 0 0 0 0 0 0 0 0 0 0 0 0 0 0 0 127 0" result="hardAlpha"/>
			<feOffset dx="0" dy="4"/>
			<feGaussianBlur stdDeviation="4"/>
			<feComposite in2="hardAlpha" operator="out" k2="-1" k3="1"/>
			<feColorMatrix type="matrix" values="0 0 0 0 0.16078 0 0 0 0 0.094118 0 0 0 0 0.43529 0 0 0 0.25 0"/>
			<feBlend mode="normal" in2="BackgroundImageFix" result="effect_dropShadow_1"/>
			<feBlend mode="normal" in="SourceGraphic" in2="effect_dropShadow_1" result="shape"/>
		</filter>
	</defs>
	<g opacity="0.200000">
		<rect id="magnifier 1" width="57.000000" height="57.000000" transform="matrix(-1 0 0 1 180 0)" fill="#FFFFFF" fill-opacity="0"/>
		<g clip-path="url(#clip52_100)">
			<path id="Vector" d="M129.76 39.47C120.74 30.45 120.74 15.78 129.76 6.76C138.78 -2.26 153.45 -2.26 162.47 6.76C170.12 14.41 171.28 25.79 165.95 34.67C165.95 34.67 165.56 35.31 166.08 35.83C169.03 38.78 177.88 47.63 177.88 47.63C180.23 49.98 180.79 53.26 178.71 55.35L178.35 55.71C176.26 57.79 172.98 57.23 170.63 54.88C170.63 54.88 161.8 46.05 158.86 43.11C158.31 42.56 157.67 42.95 157.67 42.95C148.79 48.28 137.41 47.12 129.76 39.47ZM158.2 35.2C164.86 28.53 164.86 17.69 158.2 11.03C151.53 4.37 140.69 4.37 134.03 11.03C127.37 17.69 127.37 28.53 134.03 35.2C140.69 41.86 151.53 41.86 158.2 35.2Z" fill="#84B5FF" fill-opacity="1.000000" fill-rule="nonzero"/>
			<path id="Vector" d="M156.72 21.74C157.03 21.74 157.35 21.68 157.65 21.55C158.86 21.04 159.43 19.64 158.92 18.42C155.69 10.79 146.85 7.21 139.22 10.44C138.01 10.95 137.44 12.35 137.96 13.57C138.47 14.78 139.87 15.35 141.08 14.84C146.29 12.63 152.32 15.08 154.52 20.28C154.91 21.19 155.79 21.74 156.72 21.74Z" fill="#84B5FF" fill-opacity="1.000000" fill-rule="nonzero"/>
		</g>
	</g>
	<g opacity="0.200000">
		<rect id="credit-card (1) 1" width="67.000000" height="67.000000" transform="translate(0.000000 94.000000)" fill="#FFFFFF" fill-opacity="0"/>
		<g clip-path="url(#clip52_106)">
			<path id="Vector" d="M65.6 121.91L1.39 121.91C0.55 121.91 0 122.47 0 123.31L0 142.85C0 146.76 3.07 149.83 6.97 149.83L60.02 149.83C63.92 149.83 66.99 146.76 66.99 142.85L66.99 123.31C67 122.47 66.44 121.91 65.6 121.91ZM9.77 133.08L20.93 133.08C21.77 133.08 22.33 133.64 22.33 134.47C22.33 135.31 21.77 135.87 20.93 135.87L9.77 135.87C8.93 135.87 8.37 135.31 8.37 134.47C8.37 133.64 8.93 133.08 9.77 133.08ZM29.31 141.45L9.77 141.45C8.93 141.45 8.37 140.89 8.37 140.06C8.37 139.22 8.93 138.66 9.77 138.66L29.31 138.66C30.15 138.66 30.7 139.22 30.7 140.06C30.7 140.89 30.15 141.45 29.31 141.45ZM53.04 141.45C51.92 141.45 51.08 141.17 50.25 140.62C49.41 141.17 48.57 141.45 47.45 141.45C44.38 141.45 41.87 138.94 41.87 135.87C41.87 132.8 44.38 130.29 47.45 130.29C48.57 130.29 49.41 130.57 50.25 131.12C51.08 130.57 51.92 130.29 53.04 130.29C56.11 130.29 58.62 132.8 58.62 135.87C58.62 138.94 56.11 141.45 53.04 141.45Z" fill="#84B5FF" fill-opacity="1.000000" fill-rule="nonzero"/>
			<path id="Vector" d="M60.02 105.16L6.97 105.16C3.07 105.16 0 108.23 0 112.14L0 114.93C0 115.77 0.55 116.33 1.39 116.33L65.6 116.33C66.44 116.33 67 115.77 67 114.93L67 112.14C67 108.23 63.92 105.16 60.02 105.16Z" fill="#84B5FF" fill-opacity="1.000000" fill-rule="nonzero"/>
		</g>
	</g>
	<g opacity="0.200000">
		<rect id="shopping-cart 1" width="66.000000" height="66.000000" transform="matrix(-1 0 0 1 204 136)" fill="#ACC8F6" fill-opacity="0"/>
		<g clip-path="url(#clip52_113)">
			<path id="Vector" d="M182.6 178.66L147.66 178.66C146.8 178.66 146.04 178.09 145.8 177.26L138.07 150.19C137.9 149.61 138.02 148.98 138.38 148.49C138.75 148.01 139.32 147.73 139.93 147.73L187.06 147.73L188.44 141.51C188.64 140.62 189.43 139.99 190.33 139.99L202.06 139.99C203.13 139.99 204 140.86 204 141.92C204 142.99 203.13 143.86 202.06 143.86L191.88 143.86L184.9 175.28C186.96 176.17 188.4 178.22 188.4 180.6C188.4 183.8 185.8 186.4 182.6 186.4L147.66 186.4C146.59 186.4 145.73 185.53 145.73 184.46C145.73 183.4 146.59 182.53 147.66 182.53L182.6 182.53C183.66 182.53 184.53 181.66 184.53 180.6C184.53 179.53 183.66 178.66 182.6 178.66Z" fill="#84B5FF" fill-opacity="1.000000" fill-rule="nonzero"/>
			<path id="Vector" d="M184.53 192.2C184.53 195.4 181.93 198 178.73 198C175.53 198 172.93 195.4 172.93 192.2C172.93 189 175.53 186.4 178.73 186.4C181.93 186.4 184.53 189 184.53 192.2Z" fill="#84B5FF" fill-opacity="1.000000" fill-rule="nonzero"/>
			<path id="Vector" d="M157.33 192.2C157.33 195.4 154.73 198 151.53 198C148.33 198 145.73 195.4 145.73 192.2C145.73 189 148.33 186.4 151.53 186.4C154.73 186.4 157.33 189 157.33 192.2Z" fill="#84B5FF" fill-opacity="1.000000" fill-rule="nonzero"/>
		</g>
	</g>
	<g filter="url(#filter_52_117_dd)">
		<path id="Vector" d="M136.65 26L67.34 26C62.18 26 58 30.17 58 35.32L58 150.37L58 176.62C58 181.81 62.22 185.95 67.34 185.95L136.65 185.95C141.81 185.95 146 181.78 146 176.62L146 61.57L146 35.32C146 30.12 141.76 26 136.65 26Z" fill="#276ED8" fill-opacity="1.000000" fill-rule="nonzero"/>
		<path id="Vector" d="M62.53 38.7L141.47 38.7L141.47 173.24L62.53 173.24L62.53 38.7Z" fill="#F0F6FF" fill-opacity="1.000000" fill-rule="evenodd"/>
		<path id="path14" d="M117.61 73.32L96.34 79.56L93.2 85.65L86.81 85.6L71.25 102.66L86.81 119.72L93.19 119.67L96.35 125.75L117.61 132L123.3 108.7L120.07 102.66L123.3 96.63L117.61 73.32ZM93.71 86.63L109.97 82.05L100.64 99.78L81.96 99.78L93.71 86.63ZM93.71 118.69L81.96 105.54L100.64 105.54L109.97 123.27L93.71 118.69ZM114.52 120.39L105.18 102.66L114.52 84.93L119.03 102.66L114.52 120.39Z" fill="#06B25F" fill-opacity="1.000000" fill-rule="nonzero"/>
		<path id="Vector" d="M118.27 34.47L85.85 34.47C85.48 34.47 85.17 34.17 85.17 33.8L85.17 33.47C85.17 33.09 85.47 32.79 85.85 32.79L118.27 32.79C118.65 32.79 118.95 33.09 118.95 33.47L118.95 33.8C118.95 34.17 118.65 34.47 118.27 34.47Z" fill="#FFFFFF" fill-opacity="1.000000" fill-rule="nonzero"/>
		<g opacity="0.200000">
			<path id="Vector" d="M62.53 165.28L141.47 165.28L141.47 173.24L62.53 173.24L62.53 165.28Z" fill="#84B5FF" fill-opacity="1.000000" fill-rule="evenodd"/>
		</g>
		<g opacity="0.200000">
			<path id="Vector" d="M62.53 38.7L141.47 38.7L141.47 45.84L62.53 45.84L62.53 38.7Z" fill="#84B5FF" fill-opacity="1.000000" fill-rule="evenodd"/>
		</g>
	</g>
</svg>
