<svg width="540.639893" height="482.968750" viewBox="0 0 540.64 482.969" fill="none" xmlns="http://www.w3.org/2000/svg" xmlns:xlink="http://www.w3.org/1999/xlink">
	<desc>
			Created with Pixso.
	</desc>
	<defs>
		<filter id="filter_46_2965_dd" x="90.000000" y="235.000000" width="107.630005" height="87.010010" filterUnits="userSpaceOnUse" color-interpolation-filters="sRGB">
			<feFlood flood-opacity="0" result="BackgroundImageFix"/>
			<feColorMatrix in="SourceAlpha" type="matrix" values="0 0 0 0 0 0 0 0 0 0 0 0 0 0 0 0 0 0 127 0" result="hardAlpha"/>
			<feOffset dx="0" dy="4"/>
			<feGaussianBlur stdDeviation="3.33333"/>
			<feComposite in2="hardAlpha" operator="out" k2="-1" k3="1"/>
			<feColorMatrix type="matrix" values="0 0 0 0 0.090196 0 0 0 0 0.039216 0 0 0 0 0.39608 0 0 0 0.25 0"/>
			<feBlend mode="normal" in2="BackgroundImageFix" result="effect_dropShadow_1"/>
			<feBlend mode="normal" in="SourceGraphic" in2="effect_dropShadow_1" result="shape"/>
		</filter>
		<filter id="filter_46_2970_dd" x="163.859985" y="146.000000" width="90.020004" height="70.389893" filterUnits="userSpaceOnUse" color-interpolation-filters="sRGB">
			<feFlood flood-opacity="0" result="BackgroundImageFix"/>
			<feColorMatrix in="SourceAlpha" type="matrix" values="0 0 0 0 0 0 0 0 0 0 0 0 0 0 0 0 0 0 127 0" result="hardAlpha"/>
			<feOffset dx="0" dy="4"/>
			<feGaussianBlur stdDeviation="3.33333"/>
			<feComposite in2="hardAlpha" operator="out" k2="-1" k3="1"/>
			<feColorMatrix type="matrix" values="0 0 0 0 0.090196 0 0 0 0 0.039216 0 0 0 0 0.39608 0 0 0 0.25 0"/>
			<feBlend mode="normal" in2="BackgroundImageFix" result="effect_dropShadow_1"/>
			<feBlend mode="normal" in="SourceGraphic" in2="effect_dropShadow_1" result="shape"/>
		</filter>
		<filter id="filter_46_2988_dd" x="48.000000" y="321.000000" width="84.000000" height="84.000000" filterUnits="userSpaceOnUse" color-interpolation-filters="sRGB">
			<feFlood flood-opacity="0" result="BackgroundImageFix"/>
			<feColorMatrix in="SourceAlpha" type="matrix" values="0 0 0 0 0 0 0 0 0 0 0 0 0 0 0 0 0 0 127 0" result="hardAlpha"/>
			<feOffset dx="0" dy="4"/>
			<feGaussianBlur stdDeviation="3.33333"/>
			<feComposite in2="hardAlpha" operator="out" k2="-1" k3="1"/>
			<feColorMatrix type="matrix" values="0 0 0 0 0.090196 0 0 0 0 0.039216 0 0 0 0 0.39608 0 0 0 0.25 0"/>
			<feBlend mode="normal" in2="BackgroundImageFix" result="effect_dropShadow_1"/>
			<feBlend mode="normal" in="SourceGraphic" in2="effect_dropShadow_1" result="shape"/>
		</filter>
		<filter id="filter_46_2989_dd" x="0.000000" y="283.000000" width="68.000000" height="68.000000" filterUnits="userSpaceOnUse" color-interpolation-filters="sRGB">
			<feFlood flood-opacity="0" result="BackgroundImageFix"/>
			<feColorMatrix in="SourceAlpha" type="matrix" values="0 0 0 0 0 0 0 0 0 0 0 0 0 0 0 0 0 0 127 0" result="hardAlpha"/>
			<feOffset dx="0" dy="4"/>
			<feGaussianBlur stdDeviation="3.33333"/>
			<feComposite in2="hardAlpha" operator="out" k2="-1" k3="1"/>
			<feColorMatrix type="matrix" values="0 0 0 0 0.090196 0 0 0 0 0.039216 0 0 0 0 0.39608 0 0 0 0.25 0"/>
			<feBlend mode="normal" in2="BackgroundImageFix" result="effect_dropShadow_1"/>
			<feBlend mode="normal" in="SourceGraphic" in2="effect_dropShadow_1" result="shape"/>
		</filter>
		<clipPath id="clip46_2992">
			<rect id="Frame" width="147.000000" height="94.000000" transform="matrix(-1 0 0 1 312 315)" fill="white" fill-opacity="0"/>
		</clipPath>
		<linearGradient id="paint_linear_46_2994_0" x1="269.642151" y1="313.444519" x2="211.860046" y2="421.055695" gradientUnits="userSpaceOnUse">
			<stop stop-color="#276ED8"/>
			<stop offset="0.996400" stop-color="#84B5FF"/>
		</linearGradient>
		<linearGradient id="paint_linear_46_2995_0" x1="218.999512" y1="345.000000" x2="242.499527" y2="318.000000" gradientUnits="userSpaceOnUse">
			<stop stop-color="#84B5FF"/>
			<stop offset="0.996400" stop-color="#276ED8"/>
		</linearGradient>
		<linearGradient id="paint_linear_46_2996_0" x1="265.257019" y1="355.040619" x2="288.996857" y2="316.300842" gradientUnits="userSpaceOnUse">
			<stop stop-color="#84B5FF"/>
			<stop offset="0.805159" stop-color="#276ED8"/>
		</linearGradient>
		<linearGradient id="paint_linear_46_3009_0" x1="214.752716" y1="300.433868" x2="209.573105" y2="315.529388" gradientUnits="userSpaceOnUse">
			<stop stop-color="#AA80F9"/>
			<stop offset="0.996400" stop-color="#6165D7"/>
		</linearGradient>
		<linearGradient id="paint_linear_46_3011_0" x1="257.397308" y1="347.973480" x2="261.551758" y2="343.969635" gradientUnits="userSpaceOnUse">
			<stop stop-color="#AA80F9"/>
			<stop offset="0.996400" stop-color="#6165D7"/>
		</linearGradient>
		<linearGradient id="paint_linear_46_3012_0" x1="265.304993" y1="356.224915" x2="269.459473" y2="352.221069" gradientUnits="userSpaceOnUse">
			<stop stop-color="#AA80F9"/>
			<stop offset="0.996400" stop-color="#6165D7"/>
		</linearGradient>
		<linearGradient id="paint_linear_46_3013_0" x1="265.321625" y1="356.242584" x2="269.476105" y2="352.238770" gradientUnits="userSpaceOnUse">
			<stop stop-color="#AA80F9"/>
			<stop offset="0.996400" stop-color="#6165D7"/>
		</linearGradient>
		<linearGradient id="paint_linear_46_3014_0" x1="257.433044" y1="348.010712" x2="261.587524" y2="344.006897" gradientUnits="userSpaceOnUse">
			<stop stop-color="#AA80F9"/>
			<stop offset="0.996400" stop-color="#6165D7"/>
		</linearGradient>
		<linearGradient id="paint_linear_46_3021_0" x1="180.998779" y1="352.369781" x2="197.499390" y2="326.000061" gradientUnits="userSpaceOnUse">
			<stop stop-color="#84B5FF"/>
			<stop offset="0.996400" stop-color="#276ED8"/>
		</linearGradient>
		<linearGradient id="paint_linear_46_3023_0" x1="169.405151" y1="348.113312" x2="175.070328" y2="342.432220" gradientUnits="userSpaceOnUse">
			<stop stop-color="#AA80F9"/>
			<stop offset="0.996400" stop-color="#6165D7"/>
		</linearGradient>
		<linearGradient id="paint_linear_46_3024_0" x1="179.306107" y1="358.042297" x2="184.971344" y2="352.361145" gradientUnits="userSpaceOnUse">
			<stop stop-color="#AA80F9"/>
			<stop offset="0.996400" stop-color="#6165D7"/>
		</linearGradient>
		<linearGradient id="paint_linear_46_3025_0" x1="179.160583" y1="357.896820" x2="184.825745" y2="352.215698" gradientUnits="userSpaceOnUse">
			<stop stop-color="#AA80F9"/>
			<stop offset="0.996400" stop-color="#6165D7"/>
		</linearGradient>
		<linearGradient id="paint_linear_46_3026_0" x1="169.626114" y1="348.335144" x2="175.291290" y2="342.654053" gradientUnits="userSpaceOnUse">
			<stop stop-color="#AA80F9"/>
			<stop offset="0.996400" stop-color="#6165D7"/>
		</linearGradient>
	</defs>
	<g opacity="0.040000">
		<path id="Vector" d="M185.318 416.823C284.482 446.608 444.712 417.056 498.084 358.573C551.456 300.09 494.242 230.007 454.934 203.513C442.704 195.317 429.021 189.248 419.036 178.104C397.235 153.698 389.383 114.95 362.308 97.6074C338.89 82.5872 311.519 95.9187 285.594 86.9592C274.28 83.1243 255.679 67.062 236.563 63.5649C194.285 55.8303 92.2487 95.3052 80.8489 136.082C69.449 176.859 49.5296 376.036 185.318 416.823Z" fill="#276ED8" fill-opacity="1.000000" fill-rule="nonzero"/>
	</g>
	<g opacity="0.200000">
		<path id="Vector" d="M326.75 225.199L339 222.895L339 211.913L326.75 209.801C325.809 205.289 324.024 201.064 321.566 197.321L328.593 187.01L320.817 179.234L310.66 186.415C306.916 183.957 302.711 182.191 298.18 181.25L295.876 169L284.893 169L282.781 181.25C278.269 182.191 274.045 183.976 270.301 186.434L260.01 179.406L252.234 187.183L259.415 197.34C256.957 201.084 255.191 205.308 254.25 209.82L242 212.124L242 223.106L254.25 225.219C255.191 229.75 256.976 233.955 259.434 237.699L252.407 247.99L260.183 255.766L270.359 248.585C274.103 251.043 278.327 252.829 282.839 253.75L285.143 266L296.126 266L298.238 253.75C302.769 252.809 306.974 251.024 310.718 248.566L321.009 255.594L328.785 247.817L321.605 237.66C324.043 233.936 325.809 229.731 326.75 225.199ZM290.5 240.252C277.943 240.252 267.767 230.057 267.767 217.519C267.767 204.981 277.943 194.786 290.5 194.786C303.057 194.786 313.233 204.962 313.233 217.519C313.233 230.076 303.057 240.252 290.5 240.252Z" fill="#84B5FF" fill-opacity="1.000000" fill-rule="nonzero"/>
	</g>
	<path id="Vector" d="M62.56 177.32L62.56 279.79C62.56 284.89 66.7 289.03 71.8 289.03L198.6 289.03C203.7 289.03 207.84 284.89 207.84 279.79L207.84 177.32C207.84 172.22 203.7 168.08 198.6 168.08L71.79 168.08C66.69 168.09 62.56 172.22 62.56 177.32ZM198.73 284.29L135.2 284.29L72 284C70.11 284 68.25 282.76 68.25 280.87L68.25 176.24C68.25 174.35 69.78 172.82 71.67 172.82L198.73 172.82C200.62 172.82 202.15 174.35 202.15 176.24L202.15 280.87C202.15 282.76 200.62 284.29 198.73 284.29Z" fill="#66D6A0" fill-opacity="1.000000" fill-rule="nonzero"/>
	<path id="Vector" d="M340.91 287C329.36 287 320 296.36 320 307.91C320 319.46 329.36 328.82 340.91 328.82C352.46 328.82 361.82 319.46 361.82 307.91C361.82 296.36 352.46 287 340.91 287ZM340.91 323.61C332.23 323.61 325.2 316.58 325.2 307.9C325.2 299.22 332.23 292.19 340.91 292.19C349.59 292.19 356.62 299.22 356.62 307.9C356.62 316.58 349.59 323.61 340.91 323.61Z" fill="#66D6A0" fill-opacity="1.000000" fill-rule="nonzero"/>
	<path id="Vector" d="M295.67 225.81L295.67 358.8C295.67 362.22 292.9 364.99 289.48 364.99L86.68 364.99C83.26 364.99 80.49 362.22 80.49 358.8L80.49 225.81C80.49 217.92 86.89 211.51 94.79 211.51L281.37 211.51C289.27 211.51 295.67 217.92 295.67 225.81Z" fill="#FFFFFF" fill-opacity="1.000000" fill-rule="nonzero"/>
	<path id="Vector" d="M295.67 358.8C295.67 362.22 292.9 364.99 289.48 364.99L86.68 364.99C83.26 364.99 80.49 362.22 80.49 358.8L80.49 225.81C80.49 217.92 86.89 211.51 94.79 211.51L281.37 211.51C289.27 211.51 295.67 217.92 295.67 225.81L295.67 358.8Z" stroke="#84B5FF" stroke-opacity="1.000000" stroke-width="1.000000"/>
	<path id="Vector" d="M295.67 225.81L295.67 226.41L80.49 226.41L80.49 225.81C80.49 217.92 86.89 211.51 94.79 211.51L281.37 211.51C289.27 211.51 295.67 217.92 295.67 225.81Z" fill="#84B5FF" fill-opacity="1.000000" fill-rule="nonzero"/>
	<g opacity="0.200000">
		<path id="Vector" d="M213.55 237.04L202.17 237.04C201.16 237.04 200.34 236.22 200.34 235.21C200.34 234.2 201.16 233.38 202.17 233.38L213.55 233.38C214.56 233.38 215.38 234.2 215.38 235.21C215.38 236.22 214.56 237.04 213.55 237.04Z" fill="#276ED8" fill-opacity="1.000000" fill-rule="nonzero"/>
	</g>
	<g opacity="0.200000">
		<path id="Vector" d="M235.06 237.04L223.68 237.04C222.67 237.04 221.85 236.22 221.85 235.21C221.85 234.2 222.67 233.38 223.68 233.38L235.06 233.38C236.07 233.38 236.89 234.2 236.89 235.21C236.9 236.22 236.08 237.04 235.06 237.04Z" fill="#276ED8" fill-opacity="1.000000" fill-rule="nonzero"/>
	</g>
	<g opacity="0.200000">
		<path id="Vector" d="M256.91 237.04L245.53 237.04C244.52 237.04 243.7 236.22 243.7 235.21C243.7 234.2 244.52 233.38 245.53 233.38L256.91 233.38C257.92 233.38 258.74 234.2 258.74 235.21C258.74 236.22 257.92 237.04 256.91 237.04Z" fill="#276ED8" fill-opacity="1.000000" fill-rule="nonzero"/>
	</g>
	<g opacity="0.200000">
		<path id="Vector" d="M278.42 237.04L267.04 237.04C266.03 237.04 265.21 236.22 265.21 235.21C265.21 234.2 266.03 233.38 267.04 233.38L278.42 233.38C279.43 233.38 280.25 234.2 280.25 235.21C280.26 236.22 279.44 237.04 278.42 237.04Z" fill="#276ED8" fill-opacity="1.000000" fill-rule="nonzero"/>
	</g>
	<g opacity="0.200000">
		<path id="Vector" d="M255.72 265.58L207.9 265.58C206.97 265.58 206.22 264.83 206.22 263.9L206.22 258.13C206.22 257.2 206.97 256.45 207.9 256.45L255.72 256.45C256.65 256.45 257.4 257.2 257.4 258.13L257.4 263.9C257.4 264.82 256.65 265.58 255.72 265.58Z" fill="#276ED8" fill-opacity="1.000000" fill-rule="nonzero"/>
	</g>
	<g opacity="0.200000">
		<path id="Vector" d="M242.07 276.6L207.84 276.6C206.94 276.6 206.22 275.87 206.22 274.98C206.22 274.08 206.95 273.36 207.84 273.36L242.07 273.36C242.97 273.36 243.69 274.09 243.69 274.98C243.69 275.87 242.97 276.6 242.07 276.6Z" fill="#276ED8" fill-opacity="1.000000" fill-rule="nonzero"/>
	</g>
	<g opacity="0.200000">
		<path id="Vector" d="M276.32 284.44L207.84 284.44C206.94 284.44 206.22 283.71 206.22 282.82C206.22 281.92 206.95 281.2 207.84 281.2L276.32 281.2C277.22 281.2 277.94 281.93 277.94 282.82C277.94 283.71 277.22 284.44 276.32 284.44Z" fill="#276ED8" fill-opacity="1.000000" fill-rule="nonzero"/>
	</g>
	<g opacity="0.200000">
		<path id="Vector" d="M276.32 292.28L207.84 292.28C206.94 292.28 206.22 291.55 206.22 290.66C206.22 289.76 206.95 289.04 207.84 289.04L276.32 289.04C277.22 289.04 277.94 289.77 277.94 290.66C277.94 291.55 277.22 292.28 276.32 292.28Z" fill="#276ED8" fill-opacity="1.000000" fill-rule="nonzero"/>
	</g>
	<g opacity="0.200000">
		<path id="Vector" d="M276.099 300.24L207.619 300.24C206.719 300.24 205.999 299.51 205.999 298.62C205.999 297.72 206.729 297 207.619 297L276.099 297C276.999 297 277.719 297.73 277.719 298.62C277.719 299.51 276.999 300.24 276.099 300.24Z" fill="#276ED8" fill-opacity="1.000000" fill-rule="nonzero"/>
	</g>
	<g opacity="0.100000">
		<path id="Vector" d="M295.67 336.34L295.67 358.8C295.67 362.22 292.9 364.99 289.48 364.99L86.68 364.99C83.26 364.99 80.49 362.22 80.49 358.8L80.49 336.34L295.67 336.34Z" fill="#84B5FF" fill-opacity="1.000000" fill-rule="nonzero"/>
	</g>
	<path id="Vector" d="M262.99 219.65C262.99 220.68 262.16 221.51 261.13 221.51C260.1 221.51 259.27 220.68 259.27 219.65C259.27 218.62 260.1 217.79 261.13 217.79C262.15 217.79 262.99 218.62 262.99 219.65Z" fill="#84B5FF" fill-opacity="1.000000" fill-rule="nonzero"/>
	<path id="Vector" d="M273.17 219.65C273.17 220.68 272.34 221.51 271.31 221.51C270.28 221.51 269.45 220.68 269.45 219.65C269.45 218.62 270.28 217.79 271.31 217.79C272.33 217.79 273.17 218.62 273.17 219.65Z" fill="#84B5FF" fill-opacity="1.000000" fill-rule="nonzero"/>
	<path id="Vector" d="M282.9 219.65C282.9 220.68 282.07 221.51 281.04 221.51C280.01 221.51 279.18 220.68 279.18 219.65C279.18 218.62 280.01 217.79 281.04 217.79C282.07 217.79 282.9 218.62 282.9 219.65Z" fill="#84B5FF" fill-opacity="1.000000" fill-rule="nonzero"/>
	<g opacity="0.100000">
		<path id="Vector" d="M296 358.829C296 362.239 293.232 365 289.815 365L87.1848 365C83.7677 365 81 362.239 81 358.829L81 226.255C81 218.39 87.3946 212 95.288 212L281.712 212C289.605 212 296 218.39 296 226.255L296 358.829Z" stroke="#276ED8" stroke-opacity="1.000000" stroke-width="1.000000"/>
	</g>
	<g filter="url(#filter_46_2965_dd)">
		<path id="Vector" d="M187.63 243.58L187.63 305.43C187.63 306.86 186.47 308.01 185.05 308.01L102.58 308.01C101.16 308.01 100 306.86 100 305.43L100 243.58C100 242.15 101.16 241 102.58 241L185.05 241C186.48 241.01 187.63 242.16 187.63 243.58Z" fill="#06B25F" fill-opacity="1.000000" fill-rule="nonzero"/>
	</g>
	<path id="Vector" d="M187.63 282.99L187.63 305.43C187.63 306.86 186.47 308.01 185.05 308.01L102.58 308.01C101.16 308.01 100 306.86 100 305.43L100 283.84C100 283.84 114.07 259.58 124.05 259.58C136.49 259.58 143.56 287.89 149.74 287.89C155.92 287.89 163.97 268.42 172.15 268.42C177.07 268.41 183.37 276.5 187.63 282.99Z" fill="#66D6A0" fill-opacity="1.000000" fill-rule="nonzero"/>
	<path id="Vector" d="M176.38 254.87C176.38 258.02 173.82 260.58 170.67 260.58C167.52 260.58 164.96 258.02 164.96 254.87C164.96 251.72 167.52 249.16 170.67 249.16C173.83 249.17 176.38 251.72 176.38 254.87Z" fill="#66D6A0" fill-opacity="1.000000" fill-rule="nonzero"/>
	<g filter="url(#filter_46_2970_dd)">
		<path id="Vector" d="M243.88 156.01L243.88 198.38C243.88 200.6 242.08 202.39 239.87 202.39L177.87 202.39C175.65 202.39 173.86 200.59 173.86 198.38L173.86 156.01C173.86 153.79 175.66 152 177.87 152L239.87 152C242.08 152 243.88 153.8 243.88 156.01Z" fill="#84B5FF" fill-opacity="1.000000" fill-rule="nonzero"/>
	</g>
	<path id="Vector" d="M243.88 192.72L243.88 198.39C243.88 200.61 242.08 202.4 239.87 202.4L177.87 202.4C175.65 202.4 173.86 200.6 173.86 198.39L173.86 192.72L243.88 192.72Z" fill="#276ED8" fill-opacity="1.000000" fill-rule="nonzero"/>
	<g opacity="0.800000">
		<path id="Vector" d="M211.03 198.03C211.03 198.5 211.17 198.93 211.42 199.3L180.1 199.3C179.4 199.3 178.83 198.74 178.83 198.03C178.83 197.33 179.4 196.76 180.1 196.76L211.42 196.76C211.18 197.13 211.03 197.56 211.03 198.03Z" fill="#84B5FF" fill-opacity="1.000000" fill-rule="nonzero"/>
	</g>
	<path id="Vector" d="M221.86 198.03C221.86 198.73 221.29 199.3 220.59 199.3L211.43 199.3C211.18 198.93 211.04 198.5 211.04 198.03C211.04 197.56 211.18 197.13 211.43 196.76L220.59 196.76C221.28 196.77 221.86 197.34 221.86 198.03Z" fill="#84B5FF" fill-opacity="1.000000" fill-rule="nonzero"/>
	<path id="Vector" d="M215.53 198.03C215.53 198.5 215.39 198.93 215.14 199.3C214.74 199.89 214.06 200.28 213.28 200.28C212.51 200.28 211.83 199.89 211.43 199.3C211.18 198.93 211.04 198.5 211.04 198.03C211.04 197.56 211.18 197.13 211.43 196.76C211.83 196.17 212.51 195.78 213.28 195.78C214.06 195.78 214.74 196.17 215.14 196.76C215.38 197.13 215.53 197.56 215.53 198.03Z" fill="#FFFFFF" fill-opacity="1.000000" fill-rule="nonzero"/>
	<path id="Vector" d="M214.38 198.03C214.38 198.64 213.89 199.13 213.28 199.13C212.67 199.13 212.18 198.64 212.18 198.03C212.18 197.42 212.67 196.93 213.28 196.93C213.89 196.93 214.38 197.42 214.38 198.03Z" fill="#84B5FF" fill-opacity="1.000000" fill-rule="nonzero"/>
	<path id="Vector" d="M231.3 199.15L231.3 197.04C231.3 196.76 231.59 196.58 231.84 196.71L233.95 197.77C234.22 197.91 234.22 198.3 233.95 198.43L231.84 199.49C231.59 199.61 231.3 199.43 231.3 199.15Z" fill="#84B5FF" fill-opacity="1.000000" fill-rule="nonzero"/>
	<path id="Vector" d="M236.99 198.74L236.99 197.45C236.99 197.28 237.13 197.17 237.25 197.25L238.27 197.9C238.4 197.98 238.4 198.22 238.27 198.31L237.25 198.96C237.13 199.02 236.99 198.91 236.99 198.74Z" fill="#84B5FF" fill-opacity="1.000000" fill-rule="nonzero"/>
	<path id="Vector" d="M238.37 198.74L238.37 197.45C238.37 197.28 238.51 197.17 238.63 197.25L239.65 197.9C239.78 197.98 239.78 198.22 239.65 198.31L238.63 198.96C238.51 199.02 238.37 198.91 238.37 198.74Z" fill="#84B5FF" fill-opacity="1.000000" fill-rule="nonzero"/>
	<path id="Vector" d="M228.7 198.74L228.7 197.45C228.7 197.28 228.56 197.17 228.44 197.25L227.42 197.9C227.29 197.98 227.29 198.22 227.42 198.31L228.44 198.96C228.56 199.02 228.7 198.91 228.7 198.74Z" fill="#84B5FF" fill-opacity="1.000000" fill-rule="nonzero"/>
	<path id="Vector" d="M227.32 198.74L227.32 197.45C227.32 197.28 227.18 197.17 227.06 197.25L226.04 197.9C225.91 197.98 225.91 198.22 226.04 198.31L227.06 198.96C227.18 199.02 227.32 198.91 227.32 198.74Z" fill="#84B5FF" fill-opacity="1.000000" fill-rule="nonzero"/>
	<path id="Vector" d="M211.749 160.849C218.456 162.441 222.602 169.169 221.009 175.875C219.417 182.582 212.69 186.728 205.983 185.135C199.277 183.543 195.131 176.816 196.723 170.109C198.315 163.403 205.043 159.257 211.749 160.849Z" fill="#FBF8FF" fill-opacity="1.000000" fill-rule="evenodd"/>
	<path id="Vector" d="M205.57 176.84L205.57 169.16C205.57 168.31 206.51 167.8 207.22 168.26L213.12 172.1C213.77 172.52 213.77 173.47 213.12 173.89L207.22 177.73C206.51 178.2 205.57 177.69 205.57 176.84Z" fill="#276ED8" fill-opacity="1.000000" fill-rule="nonzero"/>
	<g filter="url(#filter_46_2988_dd)">
		<path id="Vector" d="M113.918 364.08L122 362.56L122 355.313L113.918 353.92C113.297 350.943 112.119 348.156 110.497 345.686L115.134 338.883L110.003 333.752L103.302 338.49C100.831 336.869 98.057 335.703 95.0673 335.082L93.5471 327L86.3008 327L84.9074 335.082C81.9303 335.703 79.1433 336.881 76.673 338.503L69.8828 333.866L64.7522 338.997L69.4901 345.698C67.8686 348.169 66.7031 350.956 66.0823 353.933L58 355.453L58 362.699L66.0823 364.093C66.7031 367.082 67.8812 369.857 69.5028 372.327L64.8662 379.117L69.9968 384.248L76.711 379.51C79.1813 381.131 81.9683 382.31 84.9454 382.918L86.4655 391L93.7118 391L95.1053 382.918C98.095 382.297 100.869 381.119 103.34 379.497L110.13 384.134L115.26 379.003L110.523 372.302C112.131 369.844 113.297 367.07 113.918 364.08ZM90 374.012C81.715 374.012 75.0008 367.285 75.0008 359.013C75.0008 350.74 81.715 344.013 90 344.013C98.285 344.013 104.999 350.728 104.999 359.013C104.999 367.298 98.285 374.012 90 374.012Z" fill="#84B5FF" fill-opacity="1.000000" fill-rule="nonzero"/>
	</g>
	<g filter="url(#filter_46_2989_dd)">
		<path id="Vector" d="M47.687 325.322L53.5437 327.375L56.2811 322.649L51.5225 318.688C52.2387 316.508 52.5252 314.233 52.3979 312.021L58 309.333L56.5835 304.051L50.4244 304.624C49.4217 302.635 48.0371 300.821 46.3342 299.294L48.3873 293.439L43.6605 290.702L39.6976 295.459C37.5172 294.743 35.2414 294.457 33.0292 294.584L30.3395 289L25.0557 290.416L25.6287 296.589C23.6393 297.591 21.8249 298.976 20.2971 300.678L14.4403 298.625L11.7029 303.351L16.4615 307.312C15.7454 309.508 15.4589 311.751 15.5862 313.979L10 316.667L11.4164 321.949L17.5915 321.376C18.5941 323.365 19.9629 325.179 21.6817 326.706L19.6286 332.561L24.3554 335.298L28.3183 330.541C30.5146 331.257 32.7586 331.543 34.9868 331.416L37.6764 337L42.9602 335.584L42.3873 329.411C44.3448 328.425 46.1591 327.056 47.687 325.322ZM28.3183 322.792C22.9072 319.674 21.061 312.753 24.1804 307.344C27.2997 301.935 34.2228 300.089 39.6339 303.208C45.0451 306.326 46.8912 313.247 43.7719 318.656C40.6525 324.065 33.7295 325.911 28.3183 322.792Z" fill="#84B5FF" fill-opacity="1.000000" fill-rule="nonzero"/>
	</g>
	<rect id="Rectangle 11" x="79.000000" y="284.000000" width="21.000000" height="5.000000" fill="#66D6A0" fill-opacity="1.000000"/>
	<rect id="Frame" width="147.000000" height="94.000000" transform="matrix(-1 0 0 1 312 315)" fill="#FFFFFF" fill-opacity="0"/>
	<g clip-path="url(#clip46_2992)">
		<path id="Vector" d="M165.365 379.007L175.615 328.967C177.65 319.033 187.125 312.924 196.509 315.652L200.75 316.884C202.273 317.326 203.849 317.553 205.436 317.556L214.905 317.576L253.868 317.661L264.13 317.683C265.883 317.687 267.632 317.456 269.332 316.994L274.113 315.695C284.952 312.751 296.268 319.445 298.749 330.452L311.533 387.156C313.671 396.638 308.296 405.703 299.066 408.305C288.799 411.2 277.707 404.761 274.881 394.434L270.492 378.397C269.581 375.07 266.588 372.66 263.192 372.503L206.289 369.876C203.212 369.735 200.528 371.758 199.716 374.817L195.835 389.441C193.364 398.754 183.868 403.26 175.358 399.299C167.925 395.84 163.688 387.193 165.365 379.007Z" fill="url(#paint_linear_46_2994_0)" fill-opacity="1.000000" fill-rule="nonzero"/>
		<g opacity="0.300000">
			<path id="Vector" d="M215.231 343.952L246.928 344.839C249.75 344.918 252.048 342.304 252.048 339.001L252.048 317.671L210.456 317.568L210.456 338.07C210.456 341.245 212.589 343.878 215.231 343.952Z" fill="url(#paint_linear_46_2995_0)" fill-opacity="1.000000" fill-rule="nonzero"/>
		</g>
		<path id="Vector" d="M257.699 338.868C257.699 348.139 265.264 355.901 274.724 356.209C284.327 356.523 292.22 349.057 292.22 339.529C292.22 330.001 284.327 322.234 274.724 322.179C265.263 322.125 257.699 329.597 257.699 338.868Z" fill="url(#paint_linear_46_2996_0)" fill-opacity="1.000000" fill-rule="nonzero"/>
		<path id="Vector" d="M238.39 360.931C238.39 368.425 244.4 374.791 251.898 375.154C259.487 375.523 265.707 369.615 265.707 361.955C265.707 354.294 259.487 347.921 251.898 347.72C244.401 347.522 238.39 353.438 238.39 360.931Z" fill="#68A4FF" fill-opacity="1.000000" fill-rule="nonzero"/>
		<path id="Vector" d="M240.994 361.029C240.994 367.078 245.852 372.207 251.898 372.487C258.004 372.771 262.998 368.01 262.998 361.853C262.998 355.696 258.004 350.562 251.898 350.387C245.852 350.215 240.994 354.979 240.994 361.029Z" fill="#4389F2" fill-opacity="1.000000" fill-rule="nonzero"/>
		<path id="Vector" d="M244.616 361.206C244.616 364.607 247.348 367.491 250.748 367.649C254.181 367.808 256.99 365.132 256.99 361.67C256.99 358.208 254.181 355.32 250.748 355.222C247.348 355.124 244.616 357.804 244.616 361.206Z" fill="#276ED8" fill-opacity="1.000000" fill-rule="nonzero"/>
		<path id="Vector" d="M198.159 359.257C198.159 366.478 203.739 372.601 210.696 372.939C217.735 373.281 223.501 367.582 223.501 360.207C223.501 352.831 217.735 346.701 210.696 346.515C203.739 346.331 198.159 352.037 198.159 359.257Z" fill="#68A4FF" fill-opacity="1.000000" fill-rule="nonzero"/>
		<path id="Vector" d="M200.576 359.347C200.576 365.175 205.086 370.109 210.696 370.369C216.36 370.631 220.99 366.04 220.99 360.111C220.99 354.183 216.359 349.245 210.696 349.083C205.086 348.923 200.576 353.52 200.576 359.347Z" fill="#4389F2" fill-opacity="1.000000" fill-rule="nonzero"/>
		<path id="Vector" d="M202.913 359.499C202.913 362.9 205.645 365.784 209.045 365.943C212.479 366.102 215.287 363.425 215.287 359.963C215.287 356.501 212.479 353.614 209.045 353.516C205.645 353.418 202.913 356.097 202.913 359.499Z" fill="#276ED8" fill-opacity="1.000000" fill-rule="nonzero"/>
		<path id="Vector" d="M257.694 328.729C258.858 328.741 259.803 327.808 259.803 326.643L259.803 322.938C259.803 321.773 258.858 320.825 257.694 320.82C256.533 320.815 255.593 321.75 255.593 322.911L255.593 326.605C255.593 327.765 256.533 328.716 257.694 328.729Z" fill="#5483FC" fill-opacity="1.000000" fill-rule="nonzero"/>
		<path id="Vector" d="M206.548 328.108C207.609 328.12 208.47 327.228 208.47 326.117L208.47 322.578C208.47 321.466 207.609 320.561 206.548 320.555C205.49 320.551 204.632 321.445 204.632 322.553L204.632 326.079C204.632 327.188 205.49 328.096 206.548 328.108Z" fill="url(#paint_linear_46_3009_0)" fill-opacity="1.000000" fill-rule="nonzero"/>
		<path id="Vector" d="M272.913 326.867L276.538 326.902C277.607 326.912 278.474 327.773 278.474 328.826L278.474 332.963C278.474 333.338 278.362 333.703 278.151 334.012L276.511 336.416C276.153 336.941 275.549 337.249 274.903 337.238L274.543 337.232C273.897 337.22 273.296 336.891 272.939 336.355L271.313 333.909C271.104 333.594 270.993 333.229 270.993 332.856L270.993 328.743C270.994 327.698 271.852 326.857 272.913 326.867Z" fill="url(#paint_linear_46_3011_0)" fill-opacity="1.000000" fill-rule="nonzero"/>
		<path id="Vector" d="M272.913 351.451L276.538 351.556C277.607 351.587 278.474 350.759 278.474 349.707L278.474 345.569C278.474 345.194 278.362 344.825 278.151 344.508L276.511 342.041C276.153 341.501 275.549 341.17 274.903 341.156L274.543 341.149C273.897 341.135 273.296 341.441 272.939 341.964L271.313 344.348C271.104 344.654 270.993 345.015 270.993 345.388L270.993 349.501C270.994 350.547 271.852 351.421 272.913 351.451Z" fill="url(#paint_linear_46_3012_0)" fill-opacity="1.000000" fill-rule="nonzero"/>
		<path id="Vector" d="M287.332 337.63L287.332 341.24C287.332 342.3 286.452 343.14 285.369 343.116L281.128 343.023C280.745 343.015 280.371 342.896 280.052 342.68L277.576 341.013C277.035 340.649 276.71 340.047 276.71 339.409L276.71 339.054C276.71 338.417 277.035 337.827 277.576 337.483L280.052 335.911C280.371 335.708 280.745 335.604 281.128 335.61L285.369 335.679C286.453 335.697 287.332 336.57 287.332 337.63Z" fill="url(#paint_linear_46_3013_0)" fill-opacity="1.000000" fill-rule="nonzero"/>
		<path id="Vector" d="M262.361 337.188L262.361 340.727C262.361 341.766 263.207 342.628 264.253 342.651L268.382 342.742C268.758 342.75 269.125 342.649 269.438 342.449L271.882 340.896C272.418 340.555 272.741 339.969 272.741 339.333L272.741 338.979C272.741 338.343 272.418 337.744 271.882 337.382L269.438 335.736C269.125 335.525 268.758 335.409 268.382 335.403L264.253 335.336C263.207 335.319 262.361 336.148 262.361 337.188Z" fill="url(#paint_linear_46_3014_0)" fill-opacity="1.000000" fill-rule="nonzero"/>
		<path id="Vector" d="M272.104 327.047L275.729 327.082C276.797 327.092 277.665 327.953 277.665 329.006L277.665 333.143C277.665 333.518 277.553 333.883 277.342 334.192L275.702 336.596C275.344 337.121 274.74 337.43 274.094 337.418L273.734 337.412C273.088 337.4 272.487 337.071 272.13 336.535L270.504 334.089C270.295 333.774 270.184 333.409 270.184 333.036L270.184 328.924C270.185 327.877 271.043 327.037 272.104 327.047Z" fill="#5483FC" fill-opacity="1.000000" fill-rule="nonzero"/>
		<path id="Vector" d="M272.104 351.631L275.729 351.736C276.797 351.767 277.665 350.939 277.665 349.886L277.665 345.749C277.665 345.374 277.553 345.005 277.342 344.688L275.702 342.22C275.344 341.681 274.74 341.35 274.094 341.336L273.734 341.329C273.088 341.315 272.487 341.621 272.13 342.144L270.504 344.528C270.295 344.833 270.184 345.195 270.184 345.568L270.184 349.681C270.185 350.727 271.043 351.601 272.104 351.631Z" fill="#5483FC" fill-opacity="1.000000" fill-rule="nonzero"/>
		<path id="Vector" d="M286.523 337.81L286.523 341.42C286.523 342.48 285.643 343.32 284.56 343.296L280.319 343.203C279.936 343.195 279.562 343.075 279.243 342.86L276.766 341.193C276.226 340.829 275.901 340.227 275.901 339.589L275.901 339.234C275.901 338.596 276.226 338.007 276.766 337.663L279.243 336.091C279.562 335.888 279.936 335.783 280.319 335.79L284.56 335.859C285.644 335.877 286.523 336.75 286.523 337.81Z" fill="#5483FC" fill-opacity="1.000000" fill-rule="nonzero"/>
		<path id="Vector" d="M261.551 337.367L261.551 340.907C261.551 341.946 262.398 342.808 263.444 342.831L267.573 342.922C267.949 342.93 268.316 342.829 268.629 342.629L271.073 341.076C271.609 340.735 271.931 340.149 271.931 339.513L271.931 339.159C271.931 338.523 271.609 337.924 271.073 337.562L268.629 335.916C268.316 335.705 267.949 335.589 267.573 335.583L263.444 335.516C262.398 335.499 261.551 336.328 261.551 337.367Z" fill="#5483FC" fill-opacity="1.000000" fill-rule="nonzero"/>
		<path id="Vector" d="M204.986 337.765C204.986 346.607 198.185 353.553 189.9 353.283C181.732 353.016 175.194 345.815 175.194 337.194C175.194 328.574 181.732 321.623 189.9 321.669C198.185 321.716 204.986 328.922 204.986 337.765Z" fill="url(#paint_linear_46_3021_0)" fill-opacity="1.000000" fill-rule="nonzero"/>
		<path id="Vector" d="M186.119 327.506C186.119 329.723 187.809 331.544 189.902 331.574C192 331.604 193.708 329.819 193.708 327.587C193.708 325.356 192 323.535 189.902 323.52C187.809 323.505 186.119 325.29 186.119 327.506Z" fill="url(#paint_linear_46_3023_0)" fill-opacity="1.000000" fill-rule="nonzero"/>
		<path id="Vector" d="M186.119 347.3C186.119 349.516 187.809 351.366 189.902 351.431C192 351.496 193.708 349.741 193.708 347.51C193.708 345.279 192 343.429 189.902 343.378C187.809 343.327 186.119 345.083 186.119 347.3Z" fill="url(#paint_linear_46_3024_0)" fill-opacity="1.000000" fill-rule="nonzero"/>
		<path id="Vector" d="M199.331 333.597C197.206 333.563 195.488 335.348 195.488 337.583C195.488 339.817 197.206 341.667 199.331 341.715C201.464 341.764 203.199 339.98 203.199 337.73C203.199 335.481 201.464 333.631 199.331 333.597Z" fill="url(#paint_linear_46_3025_0)" fill-opacity="1.000000" fill-rule="nonzero"/>
		<path id="Vector" d="M180.62 333.303C178.561 333.27 176.897 335.027 176.897 337.227C176.897 339.426 178.561 341.246 180.62 341.293C182.686 341.34 184.367 339.583 184.367 337.37C184.367 335.156 182.686 333.335 180.62 333.303Z" fill="url(#paint_linear_46_3026_0)" fill-opacity="1.000000" fill-rule="nonzero"/>
		<path id="Vector" d="M185.31 327.687C185.31 329.903 187 331.725 189.091 331.754C191.19 331.784 192.898 329.999 192.898 327.768C192.898 325.536 191.19 323.715 189.091 323.7C187 323.685 185.31 325.47 185.31 327.687Z" fill="#5483FC" fill-opacity="1.000000" fill-rule="nonzero"/>
		<path id="Vector" d="M185.31 347.48C185.31 349.696 187 351.546 189.091 351.611C191.19 351.676 192.898 349.921 192.898 347.69C192.898 345.458 191.19 343.609 189.091 343.558C187 343.507 185.31 345.263 185.31 347.48Z" fill="#5483FC" fill-opacity="1.000000" fill-rule="nonzero"/>
		<path id="Vector" d="M198.522 333.777C196.397 333.743 194.679 335.528 194.679 337.762C194.679 339.997 196.397 341.847 198.522 341.895C200.655 341.944 202.39 340.16 202.39 337.911C202.39 335.661 200.655 333.811 198.522 333.777Z" fill="#5483FC" fill-opacity="1.000000" fill-rule="nonzero"/>
		<path id="Vector" d="M179.811 333.483C177.752 333.45 176.088 335.207 176.088 337.407C176.088 339.606 177.752 341.427 179.811 341.473C181.877 341.52 183.557 339.763 183.557 337.55C183.557 335.337 181.876 333.515 179.811 333.483Z" fill="#5483FC" fill-opacity="1.000000" fill-rule="nonzero"/>
		<path id="Vector" d="M242.3 398.18L213.09 398.18C211.94 398.18 211 397.25 211 396.09C211 394.94 211.93 394 213.09 394L242.3 394C243.45 394 244.39 394.93 244.39 396.09C244.39 397.24 243.45 398.18 242.3 398.18Z" fill="#66D6A0" fill-opacity="1.000000" fill-rule="nonzero"/>
		<path id="Vector" d="M242.3 408.61L213.09 408.61C211.94 408.61 211 407.68 211 406.52C211 405.37 211.93 404.43 213.09 404.43L242.3 404.43C243.45 404.43 244.39 405.36 244.39 406.52C244.39 407.67 243.45 408.61 242.3 408.61Z" fill="#66D6A0" fill-opacity="1.000000" fill-rule="nonzero"/>
	</g>
</svg>
