<svg width="423.874908" height="376.782227" viewBox="0 0 423.875 376.782" fill="none" xmlns="http://www.w3.org/2000/svg" xmlns:xlink="http://www.w3.org/1999/xlink">
	<desc>
			Created with Pixso.
	</desc>
	<defs>
		<filter id="filter_46_3120_dd" x="275.110718" y="154.692383" width="128.000000" height="69.346680" filterUnits="userSpaceOnUse" color-interpolation-filters="sRGB">
			<feFlood flood-opacity="0" result="BackgroundImageFix"/>
			<feColorMatrix in="SourceAlpha" type="matrix" values="0 0 0 0 0 0 0 0 0 0 0 0 0 0 0 0 0 0 127 0" result="hardAlpha"/>
			<feMorphology radius="3" in="" result="BackgroundImageFix"/>
			<feOffset dx="5" dy="5"/>
			<feGaussianBlur stdDeviation="2.66667"/>
			<feComposite in2="hardAlpha" operator="out" k2="-1" k3="1"/>
			<feColorMatrix type="matrix" values="0 0 0 0 0 0 0 0 0 0 0 0 0 0 0 0 0 0 0.2 0"/>
			<feBlend mode="normal" in2="BackgroundImageFix" result="effect_dropShadow_1"/>
			<feBlend mode="normal" in="SourceGraphic" in2="effect_dropShadow_1" result="shape"/>
		</filter>
		<filter id="filter_46_3122_dd" x="99.110718" y="199.692383" width="109.000000" height="109.000000" filterUnits="userSpaceOnUse" color-interpolation-filters="sRGB">
			<feFlood flood-opacity="0" result="BackgroundImageFix"/>
			<feColorMatrix in="SourceAlpha" type="matrix" values="0 0 0 0 0 0 0 0 0 0 0 0 0 0 0 0 0 0 127 0" result="hardAlpha"/>
			<feOffset dx="0" dy="4"/>
			<feGaussianBlur stdDeviation="3.33333"/>
			<feComposite in2="hardAlpha" operator="out" k2="-1" k3="1"/>
			<feColorMatrix type="matrix" values="0 0 0 0 0.090196 0 0 0 0 0.039216 0 0 0 0 0.39608 0 0 0 0.25 0"/>
			<feBlend mode="normal" in2="BackgroundImageFix" result="effect_dropShadow_1"/>
			<feBlend mode="normal" in="SourceGraphic" in2="effect_dropShadow_1" result="shape"/>
		</filter>
		<filter id="filter_46_3123_dd" x="187.110718" y="275.692383" width="68.000000" height="68.000000" filterUnits="userSpaceOnUse" color-interpolation-filters="sRGB">
			<feFlood flood-opacity="0" result="BackgroundImageFix"/>
			<feColorMatrix in="SourceAlpha" type="matrix" values="0 0 0 0 0 0 0 0 0 0 0 0 0 0 0 0 0 0 127 0" result="hardAlpha"/>
			<feOffset dx="0" dy="4"/>
			<feGaussianBlur stdDeviation="3.33333"/>
			<feComposite in2="hardAlpha" operator="out" k2="-1" k3="1"/>
			<feColorMatrix type="matrix" values="0 0 0 0 0.090196 0 0 0 0 0.039216 0 0 0 0 0.39608 0 0 0 0.25 0"/>
			<feBlend mode="normal" in2="BackgroundImageFix" result="effect_dropShadow_1"/>
			<feBlend mode="normal" in="SourceGraphic" in2="effect_dropShadow_1" result="shape"/>
		</filter>
		<filter id="filter_46_3125_dd" x="71.110718" y="72.692383" width="80.000000" height="79.000000" filterUnits="userSpaceOnUse" color-interpolation-filters="sRGB">
			<feFlood flood-opacity="0" result="BackgroundImageFix"/>
			<feColorMatrix in="SourceAlpha" type="matrix" values="0 0 0 0 0 0 0 0 0 0 0 0 0 0 0 0 0 0 127 0" result="hardAlpha"/>
			<feMorphology radius="3" in="" result="BackgroundImageFix"/>
			<feOffset dx="5" dy="5"/>
			<feGaussianBlur stdDeviation="2.66667"/>
			<feComposite in2="hardAlpha" operator="out" k2="-1" k3="1"/>
			<feColorMatrix type="matrix" values="0 0 0 0 0 0 0 0 0 0 0 0 0 0 0 0 0 0 0.2 0"/>
			<feBlend mode="normal" in2="BackgroundImageFix" result="effect_dropShadow_1"/>
			<feBlend mode="normal" in="SourceGraphic" in2="effect_dropShadow_1" result="shape"/>
		</filter>
	</defs>
	<g opacity="0.040000">
		<path id="Vector" d="M87.58 302.689C146.117 353.342 219.616 361.052 273.398 336.277C327.181 311.501 320.923 275.528 302.111 245.193C296.244 235.787 405.344 212.678 401.885 201.89C394.355 178.283 389.163 174.115 375.933 153.853C364.498 136.314 268.049 122.265 253.096 108.204C246.547 102.12 224.44 43.2378 158.748 18.6794C102.611 -2.30737 56.1099 37.1926 40.1067 80.3843C24.1035 123.576 7.42303 233.329 87.58 302.689Z" fill="#276ED8" fill-opacity="1.000000" fill-rule="nonzero"/>
	</g>
	<g opacity="0.200000">
		<path id="Vector" d="M406.397 168.669L415.111 167.03L415.111 159.218L406.397 157.716C405.728 154.506 404.457 151.501 402.709 148.838L407.708 141.504L402.177 135.972L394.952 141.08C392.288 139.332 389.297 138.075 386.074 137.406L384.435 128.692L376.623 128.692L375.12 137.406C371.911 138.075 368.906 139.346 366.243 141.094L358.922 136.095L353.39 141.626L358.498 148.852C356.75 151.515 355.494 154.52 354.824 157.729L346.111 159.368L346.111 167.18L354.824 168.683C355.494 171.906 356.764 174.897 358.512 177.561L353.513 184.881L359.045 190.413L366.284 185.305C368.947 187.053 371.952 188.323 375.161 188.979L376.8 197.692L384.612 197.692L386.115 188.979C389.338 188.309 392.329 187.039 394.993 185.291L402.313 190.29L407.845 184.758L402.737 177.533C404.471 174.884 405.728 171.893 406.397 168.669ZM380.611 179.377C371.678 179.377 364.44 172.125 364.44 163.206C364.44 154.287 371.678 147.035 380.611 147.035C389.543 147.035 396.782 154.274 396.782 163.206C396.782 172.138 389.543 179.377 380.611 179.377Z" fill="#84B5FF" fill-opacity="1.000000" fill-rule="nonzero"/>
	</g>
	<path id="Vector" d="M232.111 181.561L232.111 268.824C232.111 273.167 235.644 276.692 239.997 276.692L348.224 276.692C352.577 276.692 356.111 273.167 356.111 268.824L356.111 181.561C356.111 177.218 352.577 173.692 348.224 173.692L239.989 173.692C235.636 173.701 232.111 177.218 232.111 181.561ZM348.335 272.656L294.111 272.656L239.886 272.656C238.273 272.656 236.967 271.353 236.967 269.743L236.967 180.641C236.967 179.032 238.273 177.729 239.886 177.729L348.335 177.729C349.948 177.729 351.254 179.032 351.254 180.641L351.254 269.743C351.254 271.353 349.948 272.656 348.335 272.656Z" fill="#66D6A0" fill-opacity="1.000000" fill-rule="nonzero"/>
	<path id="Vector" d="M346.021 74.6924C334.471 74.6924 325.111 84.0525 325.111 95.6023C325.111 107.152 334.471 116.512 346.021 116.512C357.571 116.512 366.931 107.152 366.931 95.6023C366.931 84.0525 357.571 74.6924 346.021 74.6924ZM346.021 111.302C337.341 111.302 330.311 104.272 330.311 95.5923C330.311 86.9124 337.341 79.8823 346.021 79.8823C354.701 79.8823 361.731 86.9124 361.731 95.5923C361.731 104.272 354.701 111.302 346.021 111.302Z" fill="#66D6A0" fill-opacity="1.000000" fill-rule="nonzero"/>
	<path id="Vector" d="M313.781 109.503L313.781 242.493C313.781 245.913 311.011 248.683 307.591 248.683L104.791 248.683C101.371 248.683 98.601 245.913 98.601 242.493L98.601 109.503C98.601 101.613 105.001 95.2026 112.901 95.2026L299.481 95.2026C307.381 95.2026 313.781 101.613 313.781 109.503Z" fill="#FFFFFF" fill-opacity="1.000000" fill-rule="nonzero"/>
	<path id="Vector" d="M313.781 242.493C313.781 245.913 311.011 248.683 307.591 248.683L104.791 248.683C101.371 248.683 98.601 245.913 98.601 242.493L98.601 109.503C98.601 101.613 105.001 95.2026 112.901 95.2026L299.481 95.2026C307.381 95.2026 313.781 101.613 313.781 109.503L313.781 242.493Z" stroke="#84B5FF" stroke-opacity="1.000000" stroke-width="1.000000"/>
	<path id="Vector" d="M174.115 127.013L198.252 127.013L198.252 129.042L174.115 129.042L174.115 127.013Z" fill="#84B5FF" fill-opacity="1.000000" fill-rule="evenodd"/>
	<path id="Vector" d="M202.425 127.013L226.562 127.013L226.562 129.042L202.425 129.042L202.425 127.013Z" fill="#06B25F" fill-opacity="1.000000" fill-rule="evenodd"/>
	<path id="Vector" d="M181.572 137.96L218.999 137.96L218.999 139.988L181.572 139.988L181.572 137.96Z" fill="#276ED8" fill-opacity="1.000000" fill-rule="evenodd"/>
	<path id="Vector" d="M225.183 137.96L244.202 137.96L244.202 139.988L225.183 139.988L225.183 137.96Z" fill="#84B5FF" fill-opacity="1.000000" fill-rule="evenodd"/>
	<path id="Vector" d="M194.549 148.892L210.983 148.892L210.983 150.92L194.549 150.92L194.549 148.892Z" fill="#06B25F" fill-opacity="1.000000" fill-rule="evenodd"/>
	<path id="Vector" d="M220.484 148.892L275.01 148.892L275.01 150.92L220.484 150.92L220.484 148.892Z" fill="#06B25F" fill-opacity="1.000000" fill-rule="evenodd"/>
	<path id="Vector" d="M207.315 159.833L269.63 159.833L269.63 161.861L207.315 161.861L207.315 159.833Z" fill="#276ED8" fill-opacity="1.000000" fill-rule="evenodd"/>
	<path id="Vector" d="M191.737 170.765L210.914 170.765L210.914 172.793L191.737 172.793L191.737 170.765Z" fill="#84B5FF" fill-opacity="1.000000" fill-rule="evenodd"/>
	<path id="Vector" d="M219.121 170.765L238.298 170.765L238.298 172.793L219.121 172.793L219.121 170.765Z" fill="#276ED8" fill-opacity="1.000000" fill-rule="evenodd"/>
	<path id="Vector" d="M174.115 227.525L202.006 227.525L202.006 229.553L174.115 229.553L174.115 227.525Z" fill="#84B5FF" fill-opacity="1.000000" fill-rule="evenodd"/>
	<path id="Vector" d="M211.769 227.525L239.66 227.525L239.66 229.553L211.769 229.553L211.769 227.525Z" fill="#06B25F" fill-opacity="1.000000" fill-rule="evenodd"/>
	<path id="Vector" d="M248.428 227.525L276.319 227.525L276.319 229.553L248.428 229.553L248.428 227.525Z" fill="#84B5FF" fill-opacity="1.000000" fill-rule="evenodd"/>
	<path id="Vector" d="M181.573 216.575L236.099 216.575L236.099 218.603L181.573 218.603L181.573 216.575Z" fill="#276ED8" fill-opacity="1.000000" fill-rule="evenodd"/>
	<path id="Vector" d="M244.585 216.575L299.111 216.575L299.111 218.603L244.585 218.603L244.585 216.575Z" fill="#84B5FF" fill-opacity="1.000000" fill-rule="evenodd"/>
	<path id="Vector" d="M194.549 205.646L248.656 205.646L248.656 207.674L194.549 207.674L194.549 205.646Z" fill="#84B5FF" fill-opacity="1.000000" fill-rule="evenodd"/>
	<path id="Vector" d="M253.371 205.646L268.426 205.646L268.426 207.674L253.371 207.674L253.371 205.646Z" fill="#06B25F" fill-opacity="1.000000" fill-rule="evenodd"/>
	<path id="Vector" d="M191.021 194.701L211.385 194.701L211.385 196.729L191.021 196.729L191.021 194.701Z" fill="#06B25F" fill-opacity="1.000000" fill-rule="evenodd"/>
	<path id="Vector" d="M222.195 194.701L242.56 194.701L242.56 196.729L222.195 196.729L222.195 194.701Z" fill="#276ED8" fill-opacity="1.000000" fill-rule="evenodd"/>
	<path id="Vector" d="M255.676 194.701L276.041 194.701L276.041 196.729L255.676 196.729L255.676 194.701Z" fill="#84B5FF" fill-opacity="1.000000" fill-rule="evenodd"/>
	<path id="Vector" d="M214.633 183.773L243.189 183.773L243.189 185.802L214.633 185.802L214.633 183.773Z" fill="#06B25F" fill-opacity="1.000000" fill-rule="evenodd"/>
	<path id="Vector" d="M175.302 183.773L203.857 183.773L203.857 185.802L175.302 185.802L175.302 183.773Z" fill="#276ED8" fill-opacity="1.000000" fill-rule="evenodd"/>
	<path id="Vector" d="M164.788 125.074L167.39 125.074L167.39 127.68L164.788 127.68L164.788 125.074Z" fill="#84B5FF" fill-opacity="1.000000" fill-rule="evenodd"/>
	<path id="Vector" d="M167.39 220.442L164.787 220.442L164.787 215.144L167.39 215.144L167.39 220.442ZM167.39 207.188L164.787 207.188L164.787 201.89L167.39 201.89L167.39 207.188ZM167.39 193.934L164.787 193.934L164.787 188.635L167.39 188.635L167.39 193.934ZM167.39 180.679L164.787 180.679L164.787 175.381L167.39 175.381L167.39 180.679ZM167.39 167.425L164.787 167.425L164.787 162.127L167.39 162.127L167.39 167.425ZM167.39 154.171L164.787 154.171L164.787 148.873L167.39 148.873L167.39 154.171ZM167.39 140.917L164.787 140.917L164.787 135.618L167.39 135.618L167.39 140.917Z" fill="#84B5FF" fill-opacity="1.000000" fill-rule="nonzero"/>
	<path id="Vector" d="M164.788 228.396L167.39 228.396L167.39 231.002L164.788 231.002L164.788 228.396Z" fill="#84B5FF" fill-opacity="1.000000" fill-rule="evenodd"/>
	<g opacity="0.700000">
		<path id="Rectangle 3" d="M104.111 105.692L154.111 105.692L154.111 248.692L104.111 248.692C100.797 248.692 98.1107 246.006 98.1107 242.692L98.1107 111.692C98.1107 108.379 100.797 105.692 104.111 105.692Z" fill="#84B5FF" fill-opacity="1.000000" fill-rule="evenodd"/>
	</g>
	<path id="Vector" d="M102.59 129.016L126.726 129.016L126.726 131.044L102.59 131.044L102.59 129.016Z" fill="#06B25F" fill-opacity="1.000000" fill-rule="evenodd"/>
	<path id="Vector" d="M107.773 141.41L145.2 141.41L145.2 143.438L107.773 143.438L107.773 141.41Z" fill="#84B5FF" fill-opacity="1.000000" fill-rule="evenodd"/>
	<path id="Vector" d="M107.773 153.806L145.2 153.806L145.2 155.834L107.773 155.834L107.773 153.806Z" fill="#84B5FF" fill-opacity="1.000000" fill-rule="evenodd"/>
	<path id="Vector" d="M107.773 166.202L145.2 166.202L145.2 168.23L107.773 168.23L107.773 166.202Z" fill="#84B5FF" fill-opacity="1.000000" fill-rule="evenodd"/>
	<path id="Vector" d="M107.773 178.595L145.2 178.595L145.2 180.623L107.773 180.623L107.773 178.595Z" fill="#84B5FF" fill-opacity="1.000000" fill-rule="evenodd"/>
	<path id="Vector" d="M109.716 203.384L147.144 203.384L147.144 205.412L109.716 205.412L109.716 203.384Z" fill="#84B5FF" fill-opacity="1.000000" fill-rule="evenodd"/>
	<path id="Vector" d="M109.716 215.781L147.144 215.781L147.144 217.81L109.716 217.81L109.716 215.781Z" fill="#84B5FF" fill-opacity="1.000000" fill-rule="evenodd"/>
	<path id="Vector" d="M109.716 228.173L147.144 228.173L147.144 230.201L109.716 230.201L109.716 228.173Z" fill="#84B5FF" fill-opacity="1.000000" fill-rule="evenodd"/>
	<path id="Vector" d="M102.59 190.989L126.726 190.989L126.726 193.018L102.59 193.018L102.59 190.989Z" fill="#06B25F" fill-opacity="1.000000" fill-rule="evenodd"/>
	<path id="Vector" d="M313.781 109.503L313.781 110.103L98.601 110.103L98.601 109.503C98.601 101.613 105.001 95.2026 112.901 95.2026L299.481 95.2026C307.381 95.2026 313.781 101.613 313.781 109.503Z" fill="#84B5FF" fill-opacity="1.000000" fill-rule="nonzero"/>
	<g opacity="0.300000">
		<path id="Vector" d="M281.101 103.343C281.101 104.372 280.271 105.202 279.241 105.202C278.211 105.202 277.381 104.372 277.381 103.343C277.381 102.312 278.211 101.482 279.241 101.482C280.261 101.482 281.101 102.312 281.101 103.343Z" fill="#FFFFFF" fill-opacity="1.000000" fill-rule="nonzero"/>
	</g>
	<g opacity="0.300000">
		<path id="Vector" d="M291.281 103.343C291.281 104.372 290.451 105.202 289.421 105.202C288.391 105.202 287.561 104.372 287.561 103.343C287.561 102.312 288.391 101.482 289.421 101.482C290.441 101.482 291.281 102.312 291.281 103.343Z" fill="#FFFFFF" fill-opacity="1.000000" fill-rule="nonzero"/>
	</g>
	<g opacity="0.300000">
		<path id="Vector" d="M301.011 103.343C301.011 104.372 300.181 105.202 299.151 105.202C298.121 105.202 297.291 104.372 297.291 103.343C297.291 102.312 298.121 101.482 299.151 101.482C300.181 101.482 301.011 102.312 301.011 103.343Z" fill="#FFFFFF" fill-opacity="1.000000" fill-rule="nonzero"/>
	</g>
	<path id="Vector" d="M313.781 242.493C313.781 245.913 311.011 248.683 307.591 248.683L104.791 248.683C101.371 248.683 98.601 245.913 98.601 242.493L98.601 109.503C98.601 101.613 105.001 95.2026 112.901 95.2026L299.481 95.2026C307.381 95.2026 313.781 101.613 313.781 109.503L313.781 242.493Z" stroke="#84B5FF" stroke-opacity="1.000000" stroke-width="1.000000"/>
	<g filter="url(#filter_46_3120_dd)">
		<rect id="Rectangle 3" x="281.110718" y="160.692383" rx="6.000000" width="106.000000" height="47.346668" fill="#84B5FF" fill-opacity="1.000000"/>
	</g>
	<path id="path2" d="M317.517 193.521L312.097 184.352L317.517 175.182L320.13 184.352L317.517 193.521ZM305.454 192.626L298.643 185.833L309.484 185.833L314.904 195.002L305.454 192.626ZM305.454 176.049L314.876 173.673L309.456 182.842L298.616 182.842L305.454 176.049ZM319.296 169.172L306.982 172.387L305.148 175.546L301.451 175.518L292.417 184.352L301.451 193.185L305.148 193.157L306.982 196.316L319.296 199.559L322.603 187.51L320.741 184.38L322.603 181.249L319.296 169.172ZM347.258 178.09C345.618 178.09 344.506 178.789 343.672 180.075L343.617 180.075L343.617 178.425L340.726 178.425L340.726 190.558L343.672 190.558L343.672 183.681C343.672 182.031 344.701 180.885 346.118 180.885C347.453 180.885 348.453 181.696 348.453 183.122L348.453 190.586L351.4 190.586L351.4 182.646C351.427 179.991 349.759 178.09 347.258 178.09ZM336.251 185.442C336.251 187.063 335.334 188.181 333.833 188.181C332.471 188.181 331.609 187.399 331.609 185.973L331.609 178.425L328.663 178.425L328.663 186.532C328.663 189.188 330.164 190.921 332.86 190.921C334.556 190.921 335.5 190.278 336.307 189.16L336.39 189.16L336.39 190.586L339.225 190.586L339.225 178.425L336.279 178.425L336.279 185.442L336.251 185.442ZM352.984 178.425L355.93 178.425L355.93 190.558L352.984 190.558L352.984 178.425ZM352.984 174.652L355.93 174.652L355.93 177.083L352.984 177.083L352.984 174.652ZM372.635 178.425L370.884 183.904C370.495 185.022 370.189 186.56 370.189 186.56L370.106 186.56C370.106 186.56 369.717 185.022 369.328 183.904L367.354 178.425L364.185 178.425L367.437 187.063C368.132 188.908 368.355 189.691 368.355 190.362C368.355 191.368 367.827 192.011 366.576 192.011L365.436 192.011L365.436 194.555L367.326 194.555C369.772 194.555 370.634 193.577 371.551 190.893L375.804 178.453L372.635 178.453L372.635 178.425ZM361.434 187.007L361.434 180.578L363.324 180.578L363.324 178.453L361.434 178.453L361.434 174.652L358.487 174.652L358.487 178.425L356.82 178.425L356.82 180.55L358.487 180.55L358.487 187.678C358.487 189.97 360.211 190.586 361.767 190.586C363.046 190.586 363.379 190.53 363.379 190.53L363.379 188.181L362.629 188.181C361.934 188.209 361.434 187.902 361.434 187.007Z" fill="#FFFFFF" fill-opacity="1.000000" fill-rule="nonzero"/>
	<g filter="url(#filter_46_3122_dd)">
		<path id="Vector" d="M186.871 257.257L198.111 255.143L198.111 245.066L186.871 243.128C186.008 238.988 184.37 235.112 182.115 231.677L188.562 222.217L181.428 215.082L172.108 221.671C168.673 219.416 164.815 217.795 160.657 216.932L158.543 205.692L148.467 205.692L146.529 216.932C142.389 217.795 138.513 219.434 135.078 221.688L125.635 215.241L118.5 222.375L125.089 231.695C122.834 235.13 121.213 239.006 120.35 243.146L109.111 245.26L109.111 255.336L120.35 257.274C121.213 261.432 122.852 265.29 125.107 268.725L118.659 278.168L125.794 285.303L135.131 278.714C138.566 280.969 142.442 282.607 146.582 283.453L148.696 294.692L158.772 294.692L160.71 283.453C164.868 282.59 168.726 280.951 172.161 278.696L181.604 285.144L188.739 278.009L182.15 268.69C184.387 265.272 186.008 261.414 186.871 257.257ZM153.611 271.068C142.089 271.068 132.752 261.714 132.752 250.21C132.752 238.706 142.089 229.352 153.611 229.352C165.132 229.352 174.469 238.689 174.469 250.21C174.469 261.731 165.132 271.068 153.611 271.068Z" fill="#276ED8" fill-opacity="1.000000" fill-rule="nonzero"/>
	</g>
	<g filter="url(#filter_46_3123_dd)">
		<path id="Vector" d="M234.798 318.015L240.654 320.067L243.392 315.342L238.633 311.38C239.349 309.2 239.636 306.925 239.509 304.714L245.111 302.025L243.694 296.743L237.535 297.316C236.532 295.327 235.148 293.513 233.445 291.986L235.498 286.131L230.771 283.395L226.808 288.152C224.628 287.436 222.352 287.149 220.14 287.277L217.45 281.692L212.166 283.108L212.739 289.281C210.75 290.284 208.936 291.668 207.408 293.37L201.551 291.318L198.814 296.043L203.572 300.005C202.856 302.2 202.57 304.443 202.697 306.671L197.111 309.36L198.527 314.642L204.702 314.069C205.705 316.058 207.074 317.871 208.792 319.399L206.739 325.253L211.466 327.99L215.429 323.233C217.625 323.949 219.869 324.235 222.097 324.108L224.787 329.692L230.071 328.276L229.498 322.103C231.456 321.117 233.27 319.749 234.798 318.015ZM215.429 315.485C210.018 312.366 208.172 305.446 211.291 300.036C214.41 294.627 221.334 292.781 226.745 295.9C232.156 299.018 234.002 305.939 230.883 311.348C227.763 316.758 220.84 318.603 215.429 315.485Z" fill="#84B5FF" fill-opacity="1.000000" fill-rule="nonzero"/>
	</g>
	<g filter="url(#filter_46_3125_dd)">
		<rect id="Rectangle 3" x="77.110718" y="78.692383" rx="6.000000" width="58.000000" height="57.000000" fill="#06B25F" fill-opacity="1.000000"/>
	</g>
	<path id="&lt; / &gt;" d="M108.163 95.4163L110.805 95.4163L104.234 117.906C104.053 118.493 103.647 118.786 103.015 118.786L101.321 118.786L108.163 95.4163ZM96.8538 116.618L83.577 109.438Q82.9933 109.1 82.6744 108.595Q82.2899 107.987 82.2899 107.135Q82.2899 106.219 82.7205 105.604Q83.0537 105.127 83.6447 104.832L96.8538 97.584L96.8538 100.226Q96.8538 100.497 96.6505 100.971C96.515 101.242 96.3118 101.445 96.0409 101.581L86.6252 106.729C86.2639 107 86.2639 107.271 86.6252 107.542L96.8538 113.028L96.8538 116.618ZM128.278 104.832L115.069 97.584L115.069 101.174L125.297 106.729C125.658 107 125.658 107.271 125.297 107.542L115.814 112.622C115.543 112.757 115.34 112.983 115.204 113.299C115.114 113.615 115.069 113.841 115.069 113.977L115.069 116.618L128.278 109.37Q129.003 109.025 129.358 108.451Q129.7 107.899 129.7 107.135Q129.7 106.4 129.383 105.846Q129.029 105.226 128.278 104.832Z" fill="#FFFFFF" fill-opacity="1.000000" fill-rule="evenodd"/>
</svg>
