<svg width="40.199707" height="40.000000" viewBox="0 0 40.1997 40" fill="none" xmlns="http://www.w3.org/2000/svg" xmlns:xlink="http://www.w3.org/1999/xlink">
	<desc>
			Created with Pixso.
	</desc>
	<defs/>
	<path id="Vector" d="M40.1997 20.05C40.1997 8.98242 31.1953 0 20.1001 0C9.00488 0 0 8.98242 0 20.05C0 29.7544 6.91455 37.8345 16.0801 39.6992L16.0801 26.0652L12.0601 26.0652L12.0601 20.05L16.0801 20.05L16.0801 15.0376C16.0801 11.168 19.2358 8.02002 23.1147 8.02002L28.1401 8.02002L28.1401 14.0352L24.1201 14.0352C23.0146 14.0352 22.1099 14.9373 22.1099 16.04L22.1099 20.05L28.1401 20.05L28.1401 26.0652L22.1099 26.0652L22.1099 40C32.2603 38.9976 40.1997 30.4561 40.1997 20.05Z" fill="#FFFFFF" fill-opacity="1.000000" fill-rule="nonzero"/>
</svg>
