<svg width="32.800003" height="40.000000" viewBox="0 0 32.8 40" fill="none" xmlns="http://www.w3.org/2000/svg" xmlns:xlink="http://www.w3.org/1999/xlink">
	<desc>
			Created with Pixso.
	</desc>
	<defs/>
	<path id="Vector" d="M6.56 13.3333L6.56165 29.0732C6.56165 30.5083 7.70306 31.6667 9.11511 31.6667L9.84 31.6667L9.84 37.5701C9.84 38.9099 10.9995 40 12.3164 40C13.6382 40 14.76 38.9099 14.76 37.5684L14.76 31.6667L18.04 31.6667L18.04 37.5701C18.04 38.9099 19.1995 40 20.518 40C21.8399 40 22.96 38.9099 22.96 37.5684L22.96 31.6667L23.6882 31.665C25.0953 31.665 26.24 30.5049 26.24 29.0701L26.24 13.3333L6.56 13.3333ZM32.8 15.7849C32.8 14.4434 31.6602 13.3333 30.34 13.3333C29.0198 13.3318 27.88 14.4451 27.88 15.7866L27.88 25.9634C27.88 27.3066 29.0182 28.3333 30.34 28.3333C31.6602 28.3333 32.8 27.3083 32.8 25.9634L32.8 15.7849ZM4.92001 15.7849C4.92001 14.4434 3.78021 13.3333 2.45999 13.3333C1.1398 13.3318 0 14.4451 0 15.7866L0 25.9634C0 27.3066 1.13815 28.3333 2.45999 28.3333C3.78021 28.3333 4.92001 27.3083 4.92001 25.9634L4.92001 15.7849ZM21.2396 3.59839L22.7812 0.5C22.8928 0.280029 22.7501 0 22.5139 0C22.4057 0 22.3007 0.0632324 22.245 0.175049L20.6886 3.30493C18.1778 2.07666 14.8764 1.95166 12.113 3.30493L10.5551 0.175049C10.5009 0.0632324 10.396 0 10.2861 0C10.0499 0 9.90723 0.280029 10.0188 0.5L11.5604 3.59839C8.53455 5.32178 6.56 7.90503 6.56 11.665L26.24 11.665C26.24 7.90503 24.2654 5.32178 21.2396 3.59839ZM12.3016 8.33325C11.849 8.33325 11.48 7.95996 11.48 7.5C11.48 7.04321 11.849 6.66675 12.3016 6.66675C12.7543 6.66675 13.12 7.04321 13.12 7.5C13.12 7.95996 12.7543 8.33325 12.3016 8.33325ZM20.4984 8.33325C20.0457 8.33325 19.68 7.95996 19.68 7.5C19.68 7.04321 20.0457 6.66675 20.4984 6.66675C20.951 6.66675 21.32 7.04321 21.32 7.5C21.32 7.95996 20.951 8.33325 20.4984 8.33325Z" fill="#FFFFFF" fill-opacity="1.000000" fill-rule="nonzero"/>
</svg>
