<svg width="31.159996" height="38.000000" viewBox="0 0 31.16 38" fill="none" xmlns="http://www.w3.org/2000/svg" xmlns:xlink="http://www.w3.org/1999/xlink">
	<desc>
			Created with Pixso.
	</desc>
	<defs/>
	<path id="Vector" d="M31.16 27.8787C29.9354 31.4888 26.2694 37.8809 22.4928 37.9507C19.9876 37.9998 19.1821 36.4417 16.3185 36.4417C13.4564 36.4417 12.5606 37.9031 10.1924 37.998C6.18526 38.1548 0 28.7717 0 20.5889C0 13.0725 5.15386 9.34668 9.65648 9.27856C12.0714 9.23438 14.3523 10.9333 15.8246 10.9333C17.3031 10.9333 20.0733 8.89062 22.9852 9.18994C24.2035 9.24219 27.6265 9.68872 29.8232 12.9536C23.9948 16.8203 24.9031 24.9067 31.16 27.8787ZM23.0241 0C18.6212 0.18042 15.0285 4.87524 15.5301 8.75781C19.5996 9.0791 23.504 4.44287 23.0241 0Z" fill="#FFFFFF" fill-opacity="1.000000" fill-rule="nonzero"/>
</svg>
