<svg width="18.000000" height="18.000000" viewBox="0 0 18 18" fill="none" xmlns="http://www.w3.org/2000/svg" xmlns:xlink="http://www.w3.org/1999/xlink">
	<desc>
			Created with Pixso.
	</desc>
	<defs/>
	<path id="Vector" d="M3.62 7.79C5.06 10.62 7.38 12.93 10.21 14.38L12.41 12.18C12.68 11.91 13.08 11.81 13.43 11.93C14.55 12.31 15.76 12.51 17 12.51C17.54 12.51 18 12.96 18 13.51L18 17C18 17.54 17.54 18 17 18C7.6 18 0 10.39 0 1C0 0.44 0.45 0 1 0L4.5 0C5.04 0 5.5 0.44 5.5 1C5.5 2.25 5.7 3.44 6.07 4.56C6.17 4.92 6.09 5.31 5.82 5.58L3.62 7.79Z" fill="#276ED8" fill-opacity="1.000000" fill-rule="nonzero"/>
</svg>
