<svg width="20.000000" height="20.000000" viewBox="0 0 20 20" fill="none" xmlns="http://www.w3.org/2000/svg" xmlns:xlink="http://www.w3.org/1999/xlink">
	<desc>
			Created with Pixso.
	</desc>
	<defs/>
	<path id="Vector" d="M20 10C20 4.47 15.52 0 10 0C4.47 0 0 4.47 0 10C0 14.84 3.44 18.87 8 19.79L8 13L6 13L6 10L8 10L8 7.5C8 5.57 9.57 4 11.5 4L14 4L14 7L12 7C11.45 7 11 7.44 11 8L11 10L14 10L14 13L11 13L11 19.95C16.04 19.45 20 15.18 20 10Z" fill="#276ED8" fill-opacity="1.000000" fill-rule="nonzero"/>
</svg>
