<svg width="20.000000" height="20.000000" viewBox="0 0 20 20" fill="none" xmlns="http://www.w3.org/2000/svg" xmlns:xlink="http://www.w3.org/1999/xlink">
	<desc>
			Created with Pixso.
	</desc>
	<defs/>
	<path id="Vector" d="M19.4 12.11C20.85 5.6 15.15 -0.3 8.46 0.83C4.83 -1.42 0 1.13 0 5.45C0 6.45 0.27 7.39 0.75 8.2C-0.59 14.72 5.15 20.54 11.84 19.33C16.56 21.83 21.78 16.84 19.4 12.11ZM13.04 16.03C11.29 16.75 8.4 16.75 6.65 15.84C4.16 14.51 3.72 11.52 5.87 11.52C7.49 11.52 6.97 13.41 8.61 14.18C9.36 14.52 10.97 14.56 11.91 13.93C12.84 13.31 12.75 12.33 12.25 11.87C10.92 10.63 7.1 11.12 5.35 8.97C4.59 8.03 4.45 6.38 5.38 5.18C7.01 3.09 11.78 2.96 13.83 4.54C15.72 6.01 15.21 7.95 13.68 7.95C11.84 7.95 12.81 5.55 9.84 5.55C7.69 5.55 6.85 7.08 8.36 7.82C10.41 8.84 15.65 8.5 15.65 12.49C15.64 14.14 14.62 15.38 13.04 16.03Z" fill="#276ED8" fill-opacity="1.000000" fill-rule="nonzero"/>
</svg>
