<svg width="20.000000" height="20.000000" viewBox="0 0 20 20" fill="none" xmlns="http://www.w3.org/2000/svg" xmlns:xlink="http://www.w3.org/1999/xlink">
	<desc>
			Created with Pixso.
	</desc>
	<defs/>
	<path id="Vector" d="M10 0L9.99 0C4.48 0 0 4.48 0 10C0 12.18 0.7 14.21 1.9 15.86L0.65 19.57L4.5 18.34C6.08 19.39 7.96 20 10 20C15.51 20 20 15.51 20 10C20 4.48 15.51 0 10 0ZM15.82 14.12C15.58 14.8 14.62 15.36 13.85 15.53C13.33 15.64 12.65 15.73 10.35 14.78C7.41 13.56 5.52 10.57 5.37 10.38C5.23 10.18 4.19 8.8 4.19 7.36C4.19 5.93 4.91 5.23 5.21 4.93C5.45 4.68 5.85 4.57 6.23 4.57C6.35 4.57 6.46 4.57 6.57 4.58C6.86 4.59 7.01 4.61 7.2 5.07C7.44 5.66 8.03 7.09 8.1 7.24C8.17 7.39 8.24 7.58 8.14 7.78C8.05 7.98 7.96 8.07 7.82 8.24C7.67 8.41 7.53 8.54 7.38 8.72C7.25 8.88 7.09 9.05 7.27 9.34C7.44 9.63 8.02 10.59 8.89 11.36C10 12.35 10.91 12.67 11.23 12.81C11.47 12.91 11.76 12.88 11.94 12.69C12.16 12.45 12.44 12.05 12.72 11.66C12.92 11.38 13.17 11.34 13.44 11.44C13.71 11.54 15.14 12.24 15.43 12.39C15.72 12.54 15.92 12.61 15.99 12.73C16.06 12.85 16.06 13.43 15.82 14.12Z" fill="#276ED8" fill-opacity="1.000000" fill-rule="nonzero"/>
</svg>
