<svg width="126.000000" height="230.000000" viewBox="0 0 126 230" fill="none" xmlns="http://www.w3.org/2000/svg" xmlns:xlink="http://www.w3.org/1999/xlink">
	<desc>
			Created with Pixso.
	</desc>
	<defs/>
	<g opacity="0.120000">
		<path id="Vector" d="M112.61 0L13.38 0C5.99 0 0 5.97 0 13.34L0 178.08L0 215.67C0 223.1 6.05 229.02 13.38 229.02L112.61 229.02C120 229.02 126 223.04 126 215.67L126 50.93L126 13.34C126 5.9 119.93 0 112.61 0Z" fill="#276ED8" fill-opacity="1.000000" fill-rule="nonzero"/>
		<path id="Vector" d="M6.48 18.19L119.51 18.19L119.51 210.82L6.48 210.82L6.48 18.19Z" fill="#FFFFFF" fill-opacity="1.000000" fill-rule="evenodd"/>
		<path id="Vector" d="M86.3 12.14L39.88 12.14C39.34 12.14 38.91 11.7 38.91 11.17L38.91 10.69C38.91 10.16 39.34 9.72 39.88 9.72L86.3 9.72C86.83 9.72 87.27 10.15 87.27 10.69L87.27 11.17C87.27 11.7 86.83 12.14 86.3 12.14Z" fill="#FFFFFF" fill-opacity="1.000000" fill-rule="nonzero"/>
		<path id="Vector" d="M6.48 199.43L119.51 199.43L119.51 210.82L6.48 210.82L6.48 199.43Z" fill="#84B5FF" fill-opacity="1.000000" fill-rule="evenodd"/>
		<path id="Vector" d="M6.48 18.19L119.51 18.19L119.51 28.41L6.48 28.41L6.48 18.19Z" fill="#84B5FF" fill-opacity="1.000000" fill-rule="evenodd"/>
	</g>
</svg>
